<?xml version="1.0" encoding="UTF-8" standalone="no"?>
<!DOCTYPE svg PUBLIC "-//W3C//DTD SVG 1.1//EN" "http://www.w3.org/Graphics/SVG/1.1/DTD/svg11.dtd">
<svg width="100%" height="100%" viewBox="0 0 800 622" version="1.1" xmlns="http://www.w3.org/2000/svg" xmlns:xlink="http://www.w3.org/1999/xlink" xml:space="preserve" xmlns:serif="http://www.serif.com/" style="fill-rule:evenodd;clip-rule:evenodd;stroke-linejoin:round;stroke-miterlimit:2;">
    <g transform="matrix(0.735743,0,0,0.735743,-447.188,-29.5991)">
        <g transform="matrix(1,0,0,1,583,248.082)">
            <path d="M799.946,579.777C799.946,580.606 798.288,581.271 796.223,581.271L3.723,581.271C1.658,581.271 0,580.606 0,579.777C0,578.948 1.658,578.283 3.723,578.283L796.223,578.283C798.288,578.283 799.946,578.949 799.946,579.777Z" style="fill:rgb(214,214,227);fill-rule:nonzero;"/>
        </g>
        <g transform="matrix(1,0,0,1,744.23,275.186)">
            <circle cx="55.446" cy="55.446" r="55.446" style="fill:rgb(237,157,160);"/>
        </g>
        <g transform="matrix(1,0,0,1,492.433,242.766)">
            <path d="M333.618,16.03C345.831,20.322 352.818,22.779 359.218,28.945C370.03,39.362 371.818,53.283 373.473,66.219C374.773,76.338 376.448,89.419 370.515,104.37C368.493,109.47 358.682,132.199 339.907,135.07C336.22,135.634 327.563,135.782 330.058,133.94C353.155,116.891 363.01,106.6 362.2,80.323C361.7,64 336.753,46.369 321.941,43.2C314.742,41.73 307.249,43.475 301.441,47.975C288.991,58.196 289.521,100.461 276.393,109.295C270.993,112.929 274.593,87.351 270.787,91.495C263.281,99.679 268.095,112.203 269.445,116.984C275.845,139.625 282.545,122.884 288.788,142.216C295.535,163.089 248.879,185.622 246.865,190.283C243.365,198.391 280.883,228.383 267.148,235.052C249.715,243.523 235.972,232.491 227.869,241.952C223.339,247.235 225.79,252.838 217.606,269.284C214.935,274.653 213.591,277.337 212.416,277.242C206.816,276.792 197.76,232 212.416,190.287C218.565,172.781 224.589,155.633 240.731,142.218C249.27,135.127 256.431,132.576 258.468,124.295C261.38,112.462 249.289,107.416 246.868,88.752C245.211,75.987 244.047,57.731 248.558,46.029C252.814,34.978 256.509,25.387 266.179,16.69C268.5,14.6 287.251,0.4 307.131,0C316.283,-0.184 323.008,12.294 333.618,16.023L333.618,16.03Z" style="fill:rgb(9,8,20);fill-rule:nonzero;"/>
        </g>
        <g transform="matrix(1,0,0,1,1039.46,678.195)">
            <g transform="matrix(1,0,0,1,-55.041,-380.214)">
                <path d="M223.527,525.812L74.016,525.083L59.16,490.238L111.691,486.425L102.535,448.225L206.435,434.758L106.943,400.171L115.732,398.083L275.713,424.183L266.9,483.8L254.307,516.565L223.527,525.812Z" style="fill:rgb(108,99,255);fill-rule:nonzero;"/>
            </g>
            <g transform="matrix(1,0,0,1,-346.668,-552.527)">
                <path d="M600.454,670.36C600.454,670.36 590.554,682.446 598.414,700.718L519.352,735.008L511.765,736.598L508.271,721.31L510.608,702.016L510.608,691.471L600.454,670.36Z" style="fill:rgb(213,214,219);fill-rule:nonzero;"/>
            </g>
            <g transform="matrix(1,0,0,1,-55.041,-473.316)">
                <path d="M59.16,583.339L168.589,563.39L313.589,586.49L223.528,618.914L59.16,583.339Z" style="fill:rgb(108,99,255);fill-rule:nonzero;"/>
            </g>
            <g transform="matrix(1,0,0,1,-138.309,-542.451)">
                <path d="M142.429,652.47C142.429,652.47 132.195,671.86 143.988,689.77L306.262,724.933C306.262,724.933 296.189,709.487 306.782,688.049L142.429,652.47Z" style="fill:rgb(108,99,255);fill-rule:nonzero;"/>
            </g>
            <g transform="matrix(1,0,0,1,-138.309,-542.451)">
                <path d="M142.429,652.47C142.429,652.47 132.195,671.86 143.988,689.77L306.262,724.933C306.262,724.933 296.189,709.487 306.782,688.049L142.429,652.47Z" style="fill-opacity:0.1;fill-rule:nonzero;"/>
            </g>
            <g transform="matrix(1,0,0,1,-145.631,-586.036)">
                <path d="M313.584,768.518L404.178,729.86C404.178,729.86 409.245,730.952 405.969,734.66C402.693,738.368 315.331,772.226 315.331,772.226L151.31,733.354L313.584,768.518Z" style="fill:rgb(108,99,255);fill-rule:nonzero;"/>
            </g>
            <g transform="matrix(1,0,0,1,-145.631,-586.036)">
                <path d="M313.584,768.518L404.178,729.86C404.178,729.86 409.245,730.952 405.969,734.66C402.693,738.368 315.331,772.226 315.331,772.226L151.31,733.354L313.584,768.518Z" style="fill-opacity:0.1;fill-rule:nonzero;"/>
            </g>
            <g transform="matrix(0.9486,-0.316477,0.316477,0.9486,163.638,162.397)">
                <rect x="0" y="0" width="41.309" height="0.437" style="fill-opacity:0.1;"/>
            </g>
            <g transform="matrix(0.934702,-0.355433,0.355433,0.934702,163.623,165.914)">
                <rect x="0" y="0" width="50.333" height="0.437" style="fill-opacity:0.1;"/>
            </g>
            <g transform="matrix(0.925474,-0.37881,0.37881,0.925474,163.886,170.06)">
                <rect x="0" y="0" width="58.34" height="0.437" style="fill-opacity:0.1;"/>
            </g>
            <g transform="matrix(0.911331,-0.411673,0.411673,0.911331,164.516,173.715)">
                <rect x="0" y="0" width="67.155" height="0.437" style="fill-opacity:0.1;"/>
            </g>
            <g transform="matrix(0.916,-0.401,0.401,0.916,165.002,175.494)">
                <rect x="0" y="0" width="73.449" height="0.437" style="fill-opacity:0.1;"/>
            </g>
            <g transform="matrix(0.918032,-0.396507,0.396507,0.918032,166.018,178.481)">
                <rect x="0" y="0" width="87.895" height="0.437" style="fill-opacity:0.1;"/>
            </g>
            <g transform="matrix(1,0,0,1,-355.527,-546.517)">
                <path d="M614.074,659.69C614.074,659.69 618.049,661.29 615.716,663.77C613.383,666.25 524,692.114 524,692.114L614.074,659.69Z" style="fill:rgb(108,99,255);fill-rule:nonzero;"/>
            </g>
            <g transform="matrix(1,0,0,1,-402.593,-498.359)">
                <path d="M699.75,574.18C699.75,574.18 689.85,586.262 697.714,604.538L618.652,638.828L611.065,640.428L607.57,625.14L609.942,605.851L609.942,595.291L699.75,574.18Z" style="fill:rgb(213,214,219);fill-rule:nonzero;"/>
            </g>
            <g transform="matrix(1,0,0,1,-110.965,-419.148)">
                <path d="M158.46,487.155L267.885,467.21L412.885,490.31L322.824,522.734L158.46,487.155Z" style="fill:rgb(9,8,20);fill-rule:nonzero;"/>
            </g>
            <g transform="matrix(1,0,0,1,-194.208,-488.283)">
                <path d="M241.685,556.29C241.685,556.29 231.446,575.68 243.24,593.59L405.514,628.753C405.514,628.753 395.446,613.294 406.051,591.865L241.685,556.29Z" style="fill:rgb(58,55,104);fill-rule:nonzero;"/>
            </g>
            <g transform="matrix(1,0,0,1,-194.208,-488.283)">
                <path d="M241.685,556.29C241.685,556.29 231.446,575.68 243.24,593.59L405.514,628.753C405.514,628.753 395.446,613.294 406.051,591.865L354.735,580.757L241.685,556.29Z" style="fill:rgb(9,8,20);fill-rule:nonzero;"/>
            </g>
            <g transform="matrix(1,0,0,1,-201.55,-531.869)">
                <path d="M412.874,672.338L503.474,633.68C503.474,633.68 508.537,634.772 505.26,638.48C501.983,642.188 414.622,676.045 414.622,676.045L250.6,637.174L412.874,672.338Z" style="fill:rgb(58,55,104);fill-rule:nonzero;"/>
            </g>
            <g transform="matrix(1,0,0,1,-201.55,-531.869)">
                <path d="M412.874,672.338L503.474,633.68C503.474,633.68 508.537,634.772 505.26,638.48C501.983,642.188 414.622,676.045 414.622,676.045L250.6,637.174L412.874,672.338Z" style="fill:rgb(9,8,20);fill-rule:nonzero;"/>
            </g>
            <g transform="matrix(1,0,0,1,-396.196,-539.19)">
                <path d="M600.094,646.68C600.094,646.68 591.358,657.163 600.094,672.889" style="fill-opacity:0.1;fill-rule:nonzero;"/>
            </g>
            <g transform="matrix(0.9486,-0.316477,0.316477,0.9486,207.012,120.39)">
                <rect x="0" y="0" width="41.309" height="0.437" style="fill-opacity:0.1;"/>
            </g>
            <g transform="matrix(0.934702,-0.355433,0.355433,0.934702,207.003,123.905)">
                <rect x="0" y="0" width="50.333" height="0.437" style="fill-opacity:0.1;"/>
            </g>
            <g transform="matrix(0.925474,-0.37881,0.37881,0.925474,207.26,128.044)">
                <rect x="0" y="0" width="58.34" height="0.437" style="fill-opacity:0.1;"/>
            </g>
            <g transform="matrix(0.911331,-0.411673,0.411673,0.911331,207.895,131.7)">
                <rect x="0" y="0" width="67.155" height="0.437" style="fill-opacity:0.1;"/>
            </g>
            <g transform="matrix(0.916,-0.401,0.401,0.916,208.374,133.473)">
                <rect x="0" y="0" width="73.449" height="0.437" style="fill-opacity:0.1;"/>
            </g>
            <g transform="matrix(0.918032,-0.396507,0.396507,0.918032,209.393,136.461)">
                <rect x="0" y="0" width="87.895" height="0.437" style="fill-opacity:0.1;"/>
            </g>
            <g transform="matrix(1,0,0,1,-411.469,-492.349)">
                <path d="M713.391,563.51C713.391,563.51 717.362,565.11 715.033,567.586C712.704,570.062 623.333,595.93 623.333,595.93L713.391,563.51Z" style="fill:rgb(58,55,104);fill-rule:nonzero;"/>
            </g>
            <g transform="matrix(1,0,0,1,-407.904,-436.391)">
                <path d="M709.167,464.15C709.167,464.15 699.267,485.85 707.127,504.118L628.064,528.8L620.494,530.4L617,515.112L619.337,495.818L619.337,485.261L709.167,464.15Z" style="fill:rgb(213,214,219);fill-rule:nonzero;"/>
            </g>
            <g transform="matrix(1,0,0,1,-116.276,-357.18)">
                <path d="M167.89,377.129L277.319,357.18L422.319,380.28L332.257,412.7L167.89,377.129Z" style="fill:rgb(108,99,255);fill-rule:nonzero;"/>
            </g>
            <g transform="matrix(1,0,0,1,-199.529,-426.315)">
                <path d="M251.143,446.26C251.143,446.26 240.891,465.65 252.685,483.56L414.959,518.723C414.959,518.723 404.886,503.264 415.492,481.839L251.143,446.26Z" style="fill:rgb(108,99,255);fill-rule:nonzero;"/>
            </g>
            <g transform="matrix(1,0,0,1,-199.529,-426.315)">
                <path d="M251.143,446.26C251.143,446.26 240.891,465.65 252.685,483.56L414.959,518.723C414.959,518.723 404.886,503.264 415.492,481.839L251.143,446.26Z" style="fill-opacity:0.1;fill-rule:nonzero;"/>
            </g>
            <g transform="matrix(1,0,0,1,-206.867,-474.406)">
                <path d="M422.314,566.813L512.908,537.765C512.908,537.765 517.975,538.857 514.699,542.565C511.423,546.273 424.061,570.521 424.061,570.521L260.04,531.65L422.314,566.813Z" style="fill:rgb(108,99,255);fill-rule:nonzero;"/>
            </g>
            <g transform="matrix(1,0,0,1,-206.867,-474.406)">
                <path d="M422.314,566.813L512.908,537.765C512.908,537.765 517.975,538.857 514.699,542.565C511.423,546.273 424.061,570.521 424.061,570.521L260.04,531.65L422.314,566.813Z" style="fill-opacity:0.1;fill-rule:nonzero;"/>
            </g>
            <g transform="matrix(0.9486,-0.316477,0.316477,0.9486,211.136,72.327)">
                <rect x="0" y="0" width="41.309" height="0.437" style="fill-opacity:0.1;"/>
            </g>
            <g transform="matrix(0.934702,-0.355433,0.355433,0.934702,211.125,75.844)">
                <rect x="0" y="0" width="50.333" height="0.437" style="fill-opacity:0.1;"/>
            </g>
            <g transform="matrix(0.925474,-0.37881,0.37881,0.925474,211.377,79.986)">
                <rect x="0" y="0" width="58.34" height="0.437" style="fill-opacity:0.1;"/>
            </g>
            <g transform="matrix(0.911331,-0.411673,0.411673,0.911331,212.018,83.638)">
                <rect x="0" y="0" width="67.155" height="0.437" style="fill-opacity:0.1;"/>
            </g>
            <g transform="matrix(0.916,-0.401,0.401,0.916,212.499,85.415)">
                <rect x="0" y="0" width="73.449" height="0.437" style="fill-opacity:0.1;"/>
            </g>
            <g transform="matrix(0.918032,-0.396507,0.396507,0.918032,213.517,88.405)">
                <rect x="0" y="0" width="87.895" height="0.437" style="fill-opacity:0.1;"/>
            </g>
            <g transform="matrix(1,0,0,1,-416.78,-430.382)">
                <path d="M722.821,453.48C722.821,453.48 726.796,455.08 724.463,457.56C722.13,460.04 632.763,485.904 632.763,485.904L722.821,453.48Z" style="fill:rgb(108,99,255);fill-rule:nonzero;"/>
            </g>
            <g transform="matrix(1,0,0,1,-451.247,-415.468)">
                <path d="M712.45,427C712.45,427 696.869,429.359 693.96,432.561" style="fill-opacity:0.1;fill-rule:nonzero;"/>
            </g>
            <g transform="matrix(1,0,0,1,-426.781,-425.386)">
                <path d="M650.52,452.263C652.097,451.079 653.775,450.037 655.535,449.149C658.089,447.769 660.568,446.254 662.961,444.611" style="fill-opacity:0.1;fill-rule:nonzero;"/>
            </g>
        </g>
        <g transform="matrix(1,0,0,1,198.203,221.815)">
            <path d="M686.65,394.693C686.65,394.693 705.634,444.323 716.428,439.36C727.222,434.397 724.295,413.304 726.354,407.522C728.413,401.74 730.697,357.892 730.697,357.892C730.697,357.892 731.739,326.873 733.797,320.592C735.708,314.822 737.259,285.727 737.519,281.148L737.519,280.54L735.472,244.558L723.883,241.667L697.01,251.6L693.288,272.854L691.836,281.154L691.216,284.69L686.65,394.693Z" style="fill:rgb(237,157,160);fill-rule:nonzero;"/>
        </g>
        <g transform="matrix(1,0,0,1,159.526,222.237)">
            <path d="M576.871,396.443C576.871,396.443 557.887,446.073 547.093,441.11C536.299,436.147 539.227,415.054 537.167,409.272C535.107,403.49 532.824,359.642 532.824,359.642C532.824,359.642 531.782,328.623 529.724,322.342C527.813,316.572 526.262,287.477 526.002,282.898L526.002,282.29L528.062,246.308L539.651,243.417L566.526,253.343L570.248,274.597L571.7,282.897L572.32,286.433L576.871,396.443Z" style="fill:rgb(237,157,160);fill-rule:nonzero;"/>
        </g>
        <g transform="matrix(1,0,0,1,165.953,260.755)">
            <path d="M563,407.356C563,407.356 548.52,423.275 553.893,426.166C559.266,429.057 594.019,483.241 594.019,483.241C594.019,483.241 708.168,497.3 729.7,476.206C751.232,455.112 750.793,417.431 750.793,417.431C750.793,417.431 733.493,421.153 731.611,419.131C729.729,417.109 719.365,407.356 719.365,407.356C719.365,407.356 572.925,398.472 563,407.356Z" style="fill:rgb(9,8,20);fill-rule:nonzero;"/>
        </g>
        <g transform="matrix(1,0,0,1,159.926,200.319)">
            <path d="M774.522,266.579L737.3,296.357L726.046,297.176L721.914,297.476L652.514,302.563L580.554,297.3L569.846,296.518L556.198,295.525L527.661,268.225C527.661,268.225 547.861,246.586 565.554,231.982C572.527,226.212 579.115,221.547 583.917,219.711L584.736,219.426C587.756,218.248 617.336,215.165 619.49,212.738C633.461,198.333 619.49,163.989 619.49,163.989C619.49,163.989 681.119,132.151 673.674,173.915C666.229,215.679 687.014,209.498 687.874,209.893L712.964,210.642L717.542,212.742L729.217,218.09L755.558,230.175C776.234,239.692 774.522,266.579 774.522,266.579Z" style="fill:rgb(237,157,160);fill-rule:nonzero;"/>
        </g>
        <g transform="matrix(1,0,0,1,159.526,213.314)">
            <path d="M775.008,293.064L526,293.064L526,292.456L528.06,256.474C528.06,256.474 548.26,234.835 565.953,220.231L722.289,214.031L729.56,206.363L755.9,218.445C776.583,227.945 774.921,254.836 774.921,254.836C774.921,254.836 777.75,285.992 775.008,293.064Z" style="fill-opacity:0.1;fill-rule:nonzero;"/>
        </g>
        <g transform="matrix(1,0,0,1,159.526,213.073)">
            <path d="M775.008,292.064L526,292.064L526,291.456L528.06,255.474C528.06,255.474 548.26,233.835 565.953,219.231L722.289,213.031L729.56,205.363L755.9,217.445C776.583,226.945 774.921,253.836 774.921,253.836C774.921,253.836 777.75,284.992 775.008,292.064Z" style="fill:rgb(214,214,227);fill-rule:nonzero;"/>
        </g>
        <g transform="matrix(1,0,0,1,165.674,211.627)">
            <path d="M711.735,201.4L715.892,264.79L720.346,285.883L723.746,302.013C723.746,302.013 732.431,426.089 729.946,432.293C727.461,438.497 731.187,443.46 731.708,446.76C732.229,450.06 731.187,458.349 731.596,462.071C732.005,465.793 731.596,467.443 722.096,466.116C712.596,464.789 699.34,462.481 699.34,462.481C699.34,462.481 665.84,464.963 654.263,460.831C642.686,456.699 620.763,456.687 620.763,456.687C620.763,456.687 587.672,457.518 576.927,456.278C566.182,455.038 560.375,469.517 553.353,465.373C546.331,461.229 561.616,421.128 566.58,409.539C571.544,397.95 559.967,368.594 559.967,368.594L574.856,285.994L578.169,267.271L578.169,208.408L578.988,208.123C582.008,206.945 584.705,205.065 586.854,202.639L590.576,261.873L707.207,266.017L707.207,199.35" style="fill:rgb(214,214,227);fill-rule:nonzero;"/>
        </g>
        <g transform="matrix(1,0,0,1,282.865,329.357)">
            <path d="M581.79,499.507L631.011,501.083L623.951,464.583L586.244,468.169L581.79,499.507Z" style="fill:rgb(237,157,160);fill-rule:nonzero;"/>
        </g>
        <g transform="matrix(1,0,0,1,179.499,261.003)">
            <path d="M837.669,481.344C834.356,485.476 821.539,492.92 820.298,495.402C819.057,497.884 803.759,505.328 795.892,506.569C788.025,507.81 763.223,513.195 758.669,516.086C755.406,518.17 729.213,524.771 712.004,528.432C707.343,529.535 702.625,530.384 697.872,530.976C690.427,531.385 608.959,503.676 608.959,503.676L624.667,487.546L625.536,487.246C629.978,485.746 650.5,478.809 661.89,475.508C674.72,471.786 689.609,456.487 689.609,456.487C689.609,456.487 711.521,449.042 714.424,448.211C717.327,447.38 706.979,419.264 706.979,419.264C706.979,419.264 754.537,412.664 773.149,407.064C791.761,401.464 834.778,403.54 842.632,425.464C850.486,447.388 841.032,477.212 837.669,481.344Z" style="fill:rgb(9,8,20);fill-rule:nonzero;"/>
        </g>
        <g transform="matrix(1,0,0,1,161.442,280.982)">
            <path d="M639,531.256C639,531.256 629.5,541.182 619.979,540.363C610.458,539.544 577.185,542.845 577.185,542.845C571.154,545.25 565.507,548.523 560.422,552.56C552.642,558.689 533.957,555.66 533.957,555.66C533.957,555.66 538.089,515.96 536.823,510.993C535.557,506.026 545,497.507 545,497.507L556.167,494.666L584.456,487.42L624.992,501.478L639,531.256Z" style="fill:rgb(9,8,20);fill-rule:nonzero;"/>
        </g>
        <g transform="matrix(1,0,0,1,179.497,277.072)">
            <path d="M712,512.361C707.339,513.464 702.621,514.313 697.868,514.905C690.423,515.314 608.955,487.605 608.955,487.605L624.663,471.475L625.532,471.175C628.014,472.924 630.048,474.426 631.5,475.567C638.337,480.952 644.937,473.917 647.419,473.917C649.901,473.917 671.4,491.7 671.4,491.7C671.4,491.7 691.252,496.254 694.565,500.385C697.878,504.516 709.454,503.698 711.514,506.585C712.132,507.485 712.206,509.681 712,512.361Z" style="fill-opacity:0.1;fill-rule:nonzero;"/>
        </g>
        <g transform="matrix(1,0,0,1,146.215,261.359)">
            <path d="M592.416,420.6C592.416,420.6 572.341,421.754 560.764,416.878C549.187,412.002 510.724,400.748 499.557,408.652C488.39,416.556 461.503,423.541 473.91,454.982C486.317,486.423 492.11,487.242 492.11,487.242C495.949,490.121 499.3,493.599 502.036,497.542C505.758,503.336 540.5,516.563 549.185,516.563C557.87,516.563 573.169,516.563 594.671,531.452C616.173,546.341 635.619,548 635.619,548C635.619,548 662.919,559.167 671.419,561.648C679.919,564.129 718.754,574.874 727.861,571.574C736.968,568.274 742.75,547.574 742.75,547.574C742.75,547.574 746.882,528.963 744.81,526.074C742.738,523.185 731.162,524.002 727.861,519.874C724.56,515.746 704.696,511.189 704.696,511.189C704.696,511.189 683.243,493.397 680.762,493.397C678.281,493.397 671.68,500.42 664.843,495.047C651.225,484.959 636.917,475.837 622.024,467.747C606.313,459.472 592.416,420.6 592.416,420.6Z" style="fill:rgb(9,8,20);fill-rule:nonzero;"/>
        </g>
        <g transform="matrix(1,0,0,1,161.999,266.444)">
            <path d="M536.27,427.513C543.51,426.034 551.041,428.023 556.606,432.885C566.532,441.161 599.933,457.775 599.933,457.775" style="fill-opacity:0.1;fill-rule:nonzero;"/>
        </g>
        <g transform="matrix(1,0,0,1,199.964,266.436)">
            <path d="M746.481,427C746.481,427 702.223,433.7 693.96,442.795" style="fill-opacity:0.1;fill-rule:nonzero;"/>
        </g>
        <g transform="matrix(1,0,0,1,197.955,280.982)">
            <path d="M799.36,549.458L797.412,549.458C790.412,549.21 766.703,548.465 762.137,549.458C756.765,550.699 685.619,549.458 685.619,549.458L699.528,546.567C699.528,546.567 694.366,528.477 697.642,526.975C697.642,526.975 679.031,514.716 693.064,506.44C707.097,498.164 722.222,501.651 722.222,501.651L757.447,489.715L764.209,487.415C764.209,487.415 803.909,489.487 814.658,516.784C825.407,544.081 799.36,549.458 799.36,549.458Z" style="fill:rgb(9,8,20);fill-rule:nonzero;"/>
        </g>
        <g transform="matrix(1,0,0,1,161.4,218.208)">
            <path d="M533.79,250.96L555.751,231.108C555.751,231.108 640.904,225.525 644.428,254.472C644.428,254.472 674.616,220.153 738.105,227.796L764.967,249.187L690.72,281.769L618.57,306.795L565.428,283.01L533.79,250.96Z" style="fill:rgb(242,242,242);fill-rule:nonzero;"/>
        </g>
        <g transform="matrix(1,0,0,1,248.096,266.338)">
            <path d="M437.38,202.83L447.1,319.052L550.083,324.226L545.612,208.5L545.525,206.552L437.38,202.83Z" style="fill:rgb(108,99,255);fill-rule:nonzero;"/>
        </g>
        <g transform="matrix(1,0,0,1,275.141,265.857)">
            <path d="M655.944,200.83L549.71,216.761L549.71,333.5L653.524,318.5L655.944,200.83Z" style="fill:rgb(108,99,255);fill-rule:nonzero;"/>
        </g>
        <g transform="matrix(1,0,0,1,279.758,271.385)">
            <path d="M626.275,223.79L568.89,230.168L570.143,249.722L626.238,243.593L626.275,223.79Z" style="fill:white;fill-opacity:0.3;fill-rule:nonzero;"/>
        </g>
        <g transform="matrix(1,0,0,1,162.001,237.462)">
            <path d="M538.774,410.164L544.618,425.884C544.618,425.884 553.303,433.329 562.808,429.606C572.313,425.883 580.601,424.035 584.732,420.412C588.863,416.789 594.658,398.587 594.658,398.587C594.658,398.587 600.452,378.735 606.234,373.772C612.016,368.809 627.327,300.431 606.234,307.118C585.141,313.805 569.011,375.844 569.011,375.844C569.011,375.844 565.289,380.385 559.916,380.807C554.543,381.229 543.786,379.976 541.716,384.529C539.646,389.082 532.57,401.07 538.774,410.164Z" style="fill:rgb(237,157,160);fill-rule:nonzero;"/>
        </g>
        <g transform="matrix(1,0,0,1,180.515,224.019)">
            <path d="M644.335,258.587C633.315,261.07 621.745,258.186 613.18,250.82L617.659,366.533C617.659,366.533 628.205,377.948 644.335,375.342L644.335,258.587Z" style="fill:rgb(108,99,255);fill-rule:nonzero;"/>
        </g>
        <g transform="matrix(1,0,0,1,180.515,224.019)">
            <path d="M644.335,258.587C633.315,261.07 621.745,258.186 613.18,250.82L617.659,366.533C617.659,366.533 628.205,377.948 644.335,375.342L644.335,258.587Z" style="fill-opacity:0.1;fill-rule:nonzero;"/>
        </g>
        <g transform="matrix(1,0,0,1,187.041,220.758)">
            <path d="M640.29,248.808C640.29,248.808 683.506,235.594 694.772,237.455" style="fill-opacity:0.1;fill-rule:nonzero;"/>
        </g>
        <g transform="matrix(1,0,0,1,168.177,220.398)">
            <path d="M610.816,243.4C610.816,243.4 568.928,233.474 561.93,236.29" style="fill-opacity:0.1;fill-rule:nonzero;"/>
        </g>
        <g transform="matrix(1,0,0,1,192.328,221.973)">
            <path d="M662.25,249.242C662.25,249.242 691.15,238.642 701.595,243.683" style="fill-opacity:0.1;fill-rule:nonzero;"/>
        </g>
        <g transform="matrix(1,0,0,1,189.505,270.675)">
            <path d="M650.52,466.348C654.998,462.985 659.765,460.024 664.764,457.501C672.208,453.915 685.857,444.61 685.857,444.61" style="fill-opacity:0.1;fill-rule:nonzero;"/>
        </g>
        <g transform="matrix(1,0,0,1,161.891,250.324)">
            <path d="M568.214,360.08C568.214,360.08 550.086,374.907 544.64,376.21C539.194,377.513 535.831,389.077 535.831,389.077" style="fill-opacity:0.1;fill-rule:nonzero;"/>
        </g>
        <g transform="matrix(1,0,0,1,189.93,237.041)">
            <path d="M730.5,408.377L724.718,424.135C724.718,424.135 716.033,431.58 706.518,427.857C697.003,424.134 688.738,422.286 684.594,418.663C680.45,415.04 674.668,396.838 674.668,396.838C674.668,396.838 668.886,376.986 663.092,372.023C657.298,367.06 641.999,298.682 663.092,305.369C684.185,312.056 700.315,374.095 700.315,374.095C700.315,374.095 704.037,378.636 709.41,379.058C714.783,379.48 725.54,378.227 727.61,382.78C729.68,387.333 736.7,399.32 730.5,408.377Z" style="fill:rgb(237,157,160);fill-rule:nonzero;"/>
        </g>
        <g transform="matrix(1,0,0,1,203.25,253.466)">
            <path d="M691.69,358.3C691.69,358.3 707.66,371.3 712.473,372.444C717.286,373.588 720.239,383.726 720.239,383.726" style="fill-opacity:0.1;fill-rule:nonzero;"/>
        </g>
    </g>
    <g transform="matrix(0.735743,0,0,0.735743,-325.4,-227.607)">
        <g transform="matrix(1,0,0,1,583,248.082)">
            <path d="M799.946,579.777C799.946,580.606 798.288,581.271 796.223,581.271L3.723,581.271C1.658,581.271 0,580.606 0,579.777C0,578.948 1.658,578.283 3.723,578.283L796.223,578.283C798.288,578.283 799.946,578.949 799.946,579.777Z" style="fill:rgb(214,214,227);fill-rule:nonzero;"/>
        </g>
        <g transform="matrix(1,0,0,1,744.23,275.186)">
            <circle cx="55.446" cy="55.446" r="55.446" style="fill:rgb(237,157,160);"/>
        </g>
        <g transform="matrix(1,0,0,1,492.433,242.766)">
            <path d="M333.618,16.03C345.831,20.322 352.818,22.779 359.218,28.945C370.03,39.362 371.818,53.283 373.473,66.219C374.773,76.338 376.448,89.419 370.515,104.37C368.493,109.47 358.682,132.199 339.907,135.07C336.22,135.634 327.563,135.782 330.058,133.94C353.155,116.891 363.01,106.6 362.2,80.323C361.7,64 336.753,46.369 321.941,43.2C314.742,41.73 307.249,43.475 301.441,47.975C288.991,58.196 289.521,100.461 276.393,109.295C270.993,112.929 274.593,87.351 270.787,91.495C263.281,99.679 268.095,112.203 269.445,116.984C275.845,139.625 282.545,122.884 288.788,142.216C295.535,163.089 248.879,185.622 246.865,190.283C243.365,198.391 280.883,228.383 267.148,235.052C249.715,243.523 235.972,232.491 227.869,241.952C223.339,247.235 225.79,252.838 217.606,269.284C214.935,274.653 213.591,277.337 212.416,277.242C206.816,276.792 197.76,232 212.416,190.287C218.565,172.781 224.589,155.633 240.731,142.218C249.27,135.127 256.431,132.576 258.468,124.295C261.38,112.462 249.289,107.416 246.868,88.752C245.211,75.987 244.047,57.731 248.558,46.029C252.814,34.978 256.509,25.387 266.179,16.69C268.5,14.6 287.251,0.4 307.131,0C316.283,-0.184 323.008,12.294 333.618,16.023L333.618,16.03Z" style="fill:rgb(9,8,20);fill-rule:nonzero;"/>
        </g>
        <g transform="matrix(1,0,0,1,1039.46,678.195)">
            <g transform="matrix(1,0,0,1,-55.041,-380.214)">
                <path d="M223.527,525.812L74.016,525.083L59.16,490.238L111.691,486.425L102.535,448.225L206.435,434.758L106.943,400.171L115.732,398.083L275.713,424.183L266.9,483.8L254.307,516.565L223.527,525.812Z" style="fill:rgb(108,99,255);fill-rule:nonzero;"/>
            </g>
            <g transform="matrix(1,0,0,1,-346.668,-552.527)">
                <path d="M600.454,670.36C600.454,670.36 590.554,682.446 598.414,700.718L519.352,735.008L511.765,736.598L508.271,721.31L510.608,702.016L510.608,691.471L600.454,670.36Z" style="fill:rgb(213,214,219);fill-rule:nonzero;"/>
            </g>
            <g transform="matrix(1,0,0,1,-55.041,-473.316)">
                <path d="M59.16,583.339L168.589,563.39L313.589,586.49L223.528,618.914L59.16,583.339Z" style="fill:rgb(108,99,255);fill-rule:nonzero;"/>
            </g>
            <g transform="matrix(1,0,0,1,-138.309,-542.451)">
                <path d="M142.429,652.47C142.429,652.47 132.195,671.86 143.988,689.77L306.262,724.933C306.262,724.933 296.189,709.487 306.782,688.049L142.429,652.47Z" style="fill:rgb(108,99,255);fill-rule:nonzero;"/>
            </g>
            <g transform="matrix(1,0,0,1,-138.309,-542.451)">
                <path d="M142.429,652.47C142.429,652.47 132.195,671.86 143.988,689.77L306.262,724.933C306.262,724.933 296.189,709.487 306.782,688.049L142.429,652.47Z" style="fill-opacity:0.1;fill-rule:nonzero;"/>
            </g>
            <g transform="matrix(1,0,0,1,-145.631,-586.036)">
                <path d="M313.584,768.518L404.178,729.86C404.178,729.86 409.245,730.952 405.969,734.66C402.693,738.368 315.331,772.226 315.331,772.226L151.31,733.354L313.584,768.518Z" style="fill:rgb(108,99,255);fill-rule:nonzero;"/>
            </g>
            <g transform="matrix(1,0,0,1,-145.631,-586.036)">
                <path d="M313.584,768.518L404.178,729.86C404.178,729.86 409.245,730.952 405.969,734.66C402.693,738.368 315.331,772.226 315.331,772.226L151.31,733.354L313.584,768.518Z" style="fill-opacity:0.1;fill-rule:nonzero;"/>
            </g>
            <g transform="matrix(0.9486,-0.316477,0.316477,0.9486,163.638,162.397)">
                <rect x="0" y="0" width="41.309" height="0.437" style="fill-opacity:0.1;"/>
            </g>
            <g transform="matrix(0.934702,-0.355433,0.355433,0.934702,163.623,165.914)">
                <rect x="0" y="0" width="50.333" height="0.437" style="fill-opacity:0.1;"/>
            </g>
            <g transform="matrix(0.925474,-0.37881,0.37881,0.925474,163.886,170.06)">
                <rect x="0" y="0" width="58.34" height="0.437" style="fill-opacity:0.1;"/>
            </g>
            <g transform="matrix(0.911331,-0.411673,0.411673,0.911331,164.516,173.715)">
                <rect x="0" y="0" width="67.155" height="0.437" style="fill-opacity:0.1;"/>
            </g>
            <g transform="matrix(0.916,-0.401,0.401,0.916,165.002,175.494)">
                <rect x="0" y="0" width="73.449" height="0.437" style="fill-opacity:0.1;"/>
            </g>
            <g transform="matrix(0.918032,-0.396507,0.396507,0.918032,166.018,178.481)">
                <rect x="0" y="0" width="87.895" height="0.437" style="fill-opacity:0.1;"/>
            </g>
            <g transform="matrix(1,0,0,1,-355.527,-546.517)">
                <path d="M614.074,659.69C614.074,659.69 618.049,661.29 615.716,663.77C613.383,666.25 524,692.114 524,692.114L614.074,659.69Z" style="fill:rgb(108,99,255);fill-rule:nonzero;"/>
            </g>
            <g transform="matrix(1,0,0,1,-402.593,-498.359)">
                <path d="M699.75,574.18C699.75,574.18 689.85,586.262 697.714,604.538L618.652,638.828L611.065,640.428L607.57,625.14L609.942,605.851L609.942,595.291L699.75,574.18Z" style="fill:rgb(213,214,219);fill-rule:nonzero;"/>
            </g>
            <g transform="matrix(1,0,0,1,-110.965,-419.148)">
                <path d="M158.46,487.155L267.885,467.21L412.885,490.31L322.824,522.734L158.46,487.155Z" style="fill:rgb(9,8,20);fill-rule:nonzero;"/>
            </g>
            <g transform="matrix(1,0,0,1,-194.208,-488.283)">
                <path d="M241.685,556.29C241.685,556.29 231.446,575.68 243.24,593.59L405.514,628.753C405.514,628.753 395.446,613.294 406.051,591.865L241.685,556.29Z" style="fill:rgb(58,55,104);fill-rule:nonzero;"/>
            </g>
            <g transform="matrix(1,0,0,1,-194.208,-488.283)">
                <path d="M241.685,556.29C241.685,556.29 231.446,575.68 243.24,593.59L405.514,628.753C405.514,628.753 395.446,613.294 406.051,591.865L354.735,580.757L241.685,556.29Z" style="fill:rgb(9,8,20);fill-rule:nonzero;"/>
            </g>
            <g transform="matrix(1,0,0,1,-201.55,-531.869)">
                <path d="M412.874,672.338L503.474,633.68C503.474,633.68 508.537,634.772 505.26,638.48C501.983,642.188 414.622,676.045 414.622,676.045L250.6,637.174L412.874,672.338Z" style="fill:rgb(58,55,104);fill-rule:nonzero;"/>
            </g>
            <g transform="matrix(1,0,0,1,-201.55,-531.869)">
                <path d="M412.874,672.338L503.474,633.68C503.474,633.68 508.537,634.772 505.26,638.48C501.983,642.188 414.622,676.045 414.622,676.045L250.6,637.174L412.874,672.338Z" style="fill:rgb(9,8,20);fill-rule:nonzero;"/>
            </g>
            <g transform="matrix(1,0,0,1,-396.196,-539.19)">
                <path d="M600.094,646.68C600.094,646.68 591.358,657.163 600.094,672.889" style="fill-opacity:0.1;fill-rule:nonzero;"/>
            </g>
            <g transform="matrix(0.9486,-0.316477,0.316477,0.9486,207.012,120.39)">
                <rect x="0" y="0" width="41.309" height="0.437" style="fill-opacity:0.1;"/>
            </g>
            <g transform="matrix(0.934702,-0.355433,0.355433,0.934702,207.003,123.905)">
                <rect x="0" y="0" width="50.333" height="0.437" style="fill-opacity:0.1;"/>
            </g>
            <g transform="matrix(0.925474,-0.37881,0.37881,0.925474,207.26,128.044)">
                <rect x="0" y="0" width="58.34" height="0.437" style="fill-opacity:0.1;"/>
            </g>
            <g transform="matrix(0.911331,-0.411673,0.411673,0.911331,207.895,131.7)">
                <rect x="0" y="0" width="67.155" height="0.437" style="fill-opacity:0.1;"/>
            </g>
            <g transform="matrix(0.916,-0.401,0.401,0.916,208.374,133.473)">
                <rect x="0" y="0" width="73.449" height="0.437" style="fill-opacity:0.1;"/>
            </g>
            <g transform="matrix(0.918032,-0.396507,0.396507,0.918032,209.393,136.461)">
                <rect x="0" y="0" width="87.895" height="0.437" style="fill-opacity:0.1;"/>
            </g>
            <g transform="matrix(1,0,0,1,-411.469,-492.349)">
                <path d="M713.391,563.51C713.391,563.51 717.362,565.11 715.033,567.586C712.704,570.062 623.333,595.93 623.333,595.93L713.391,563.51Z" style="fill:rgb(58,55,104);fill-rule:nonzero;"/>
            </g>
            <g transform="matrix(1,0,0,1,-407.904,-436.391)">
                <path d="M709.167,464.15C709.167,464.15 699.267,485.85 707.127,504.118L628.064,528.8L620.494,530.4L617,515.112L619.337,495.818L619.337,485.261L709.167,464.15Z" style="fill:rgb(213,214,219);fill-rule:nonzero;"/>
            </g>
            <g transform="matrix(1,0,0,1,-116.276,-357.18)">
                <path d="M167.89,377.129L277.319,357.18L422.319,380.28L332.257,412.7L167.89,377.129Z" style="fill:rgb(108,99,255);fill-rule:nonzero;"/>
            </g>
            <g transform="matrix(1,0,0,1,-199.529,-426.315)">
                <path d="M251.143,446.26C251.143,446.26 240.891,465.65 252.685,483.56L414.959,518.723C414.959,518.723 404.886,503.264 415.492,481.839L251.143,446.26Z" style="fill:rgb(108,99,255);fill-rule:nonzero;"/>
            </g>
            <g transform="matrix(1,0,0,1,-199.529,-426.315)">
                <path d="M251.143,446.26C251.143,446.26 240.891,465.65 252.685,483.56L414.959,518.723C414.959,518.723 404.886,503.264 415.492,481.839L251.143,446.26Z" style="fill-opacity:0.1;fill-rule:nonzero;"/>
            </g>
            <g transform="matrix(1,0,0,1,-206.867,-474.406)">
                <path d="M422.314,566.813L512.908,537.765C512.908,537.765 517.975,538.857 514.699,542.565C511.423,546.273 424.061,570.521 424.061,570.521L260.04,531.65L422.314,566.813Z" style="fill:rgb(108,99,255);fill-rule:nonzero;"/>
            </g>
            <g transform="matrix(1,0,0,1,-206.867,-474.406)">
                <path d="M422.314,566.813L512.908,537.765C512.908,537.765 517.975,538.857 514.699,542.565C511.423,546.273 424.061,570.521 424.061,570.521L260.04,531.65L422.314,566.813Z" style="fill-opacity:0.1;fill-rule:nonzero;"/>
            </g>
            <g transform="matrix(0.9486,-0.316477,0.316477,0.9486,211.136,72.327)">
                <rect x="0" y="0" width="41.309" height="0.437" style="fill-opacity:0.1;"/>
            </g>
            <g transform="matrix(0.934702,-0.355433,0.355433,0.934702,211.125,75.844)">
                <rect x="0" y="0" width="50.333" height="0.437" style="fill-opacity:0.1;"/>
            </g>
            <g transform="matrix(0.925474,-0.37881,0.37881,0.925474,211.377,79.986)">
                <rect x="0" y="0" width="58.34" height="0.437" style="fill-opacity:0.1;"/>
            </g>
            <g transform="matrix(0.911331,-0.411673,0.411673,0.911331,212.018,83.638)">
                <rect x="0" y="0" width="67.155" height="0.437" style="fill-opacity:0.1;"/>
            </g>
            <g transform="matrix(0.916,-0.401,0.401,0.916,212.499,85.415)">
                <rect x="0" y="0" width="73.449" height="0.437" style="fill-opacity:0.1;"/>
            </g>
            <g transform="matrix(0.918032,-0.396507,0.396507,0.918032,213.517,88.405)">
                <rect x="0" y="0" width="87.895" height="0.437" style="fill-opacity:0.1;"/>
            </g>
            <g transform="matrix(1,0,0,1,-416.78,-430.382)">
                <path d="M722.821,453.48C722.821,453.48 726.796,455.08 724.463,457.56C722.13,460.04 632.763,485.904 632.763,485.904L722.821,453.48Z" style="fill:rgb(108,99,255);fill-rule:nonzero;"/>
            </g>
            <g transform="matrix(1,0,0,1,-451.247,-415.468)">
                <path d="M712.45,427C712.45,427 696.869,429.359 693.96,432.561" style="fill-opacity:0.1;fill-rule:nonzero;"/>
            </g>
            <g transform="matrix(1,0,0,1,-426.781,-425.386)">
                <path d="M650.52,452.263C652.097,451.079 653.775,450.037 655.535,449.149C658.089,447.769 660.568,446.254 662.961,444.611" style="fill-opacity:0.1;fill-rule:nonzero;"/>
            </g>
        </g>
        <g transform="matrix(1,0,0,1,198.203,221.815)">
            <path d="M686.65,394.693C686.65,394.693 705.634,444.323 716.428,439.36C727.222,434.397 724.295,413.304 726.354,407.522C728.413,401.74 730.697,357.892 730.697,357.892C730.697,357.892 731.739,326.873 733.797,320.592C735.708,314.822 737.259,285.727 737.519,281.148L737.519,280.54L735.472,244.558L723.883,241.667L697.01,251.6L693.288,272.854L691.836,281.154L691.216,284.69L686.65,394.693Z" style="fill:rgb(237,157,160);fill-rule:nonzero;"/>
        </g>
        <g transform="matrix(1,0,0,1,159.526,222.237)">
            <path d="M576.871,396.443C576.871,396.443 557.887,446.073 547.093,441.11C536.299,436.147 539.227,415.054 537.167,409.272C535.107,403.49 532.824,359.642 532.824,359.642C532.824,359.642 531.782,328.623 529.724,322.342C527.813,316.572 526.262,287.477 526.002,282.898L526.002,282.29L528.062,246.308L539.651,243.417L566.526,253.343L570.248,274.597L571.7,282.897L572.32,286.433L576.871,396.443Z" style="fill:rgb(237,157,160);fill-rule:nonzero;"/>
        </g>
        <g transform="matrix(1,0,0,1,165.953,260.755)">
            <path d="M563,407.356C563,407.356 548.52,423.275 553.893,426.166C559.266,429.057 594.019,483.241 594.019,483.241C594.019,483.241 708.168,497.3 729.7,476.206C751.232,455.112 750.793,417.431 750.793,417.431C750.793,417.431 733.493,421.153 731.611,419.131C729.729,417.109 719.365,407.356 719.365,407.356C719.365,407.356 572.925,398.472 563,407.356Z" style="fill:rgb(9,8,20);fill-rule:nonzero;"/>
        </g>
        <g transform="matrix(1,0,0,1,159.926,200.319)">
            <path d="M774.522,266.579L737.3,296.357L726.046,297.176L721.914,297.476L652.514,302.563L580.554,297.3L569.846,296.518L556.198,295.525L527.661,268.225C527.661,268.225 547.861,246.586 565.554,231.982C572.527,226.212 579.115,221.547 583.917,219.711L584.736,219.426C587.756,218.248 617.336,215.165 619.49,212.738C633.461,198.333 619.49,163.989 619.49,163.989C619.49,163.989 681.119,132.151 673.674,173.915C666.229,215.679 687.014,209.498 687.874,209.893L712.964,210.642L717.542,212.742L729.217,218.09L755.558,230.175C776.234,239.692 774.522,266.579 774.522,266.579Z" style="fill:rgb(237,157,160);fill-rule:nonzero;"/>
        </g>
        <g transform="matrix(1,0,0,1,159.526,213.314)">
            <path d="M775.008,293.064L526,293.064L526,292.456L528.06,256.474C528.06,256.474 548.26,234.835 565.953,220.231L722.289,214.031L729.56,206.363L755.9,218.445C776.583,227.945 774.921,254.836 774.921,254.836C774.921,254.836 777.75,285.992 775.008,293.064Z" style="fill-opacity:0.1;fill-rule:nonzero;"/>
        </g>
        <g transform="matrix(1,0,0,1,159.526,213.073)">
            <path d="M775.008,292.064L526,292.064L526,291.456L528.06,255.474C528.06,255.474 548.26,233.835 565.953,219.231L722.289,213.031L729.56,205.363L755.9,217.445C776.583,226.945 774.921,253.836 774.921,253.836C774.921,253.836 777.75,284.992 775.008,292.064Z" style="fill:rgb(214,214,227);fill-rule:nonzero;"/>
        </g>
        <g transform="matrix(1,0,0,1,165.674,211.627)">
            <path d="M711.735,201.4L715.892,264.79L720.346,285.883L723.746,302.013C723.746,302.013 732.431,426.089 729.946,432.293C727.461,438.497 731.187,443.46 731.708,446.76C732.229,450.06 731.187,458.349 731.596,462.071C732.005,465.793 731.596,467.443 722.096,466.116C712.596,464.789 699.34,462.481 699.34,462.481C699.34,462.481 665.84,464.963 654.263,460.831C642.686,456.699 620.763,456.687 620.763,456.687C620.763,456.687 587.672,457.518 576.927,456.278C566.182,455.038 560.375,469.517 553.353,465.373C546.331,461.229 561.616,421.128 566.58,409.539C571.544,397.95 559.967,368.594 559.967,368.594L574.856,285.994L578.169,267.271L578.169,208.408L578.988,208.123C582.008,206.945 584.705,205.065 586.854,202.639L590.576,261.873L707.207,266.017L707.207,199.35" style="fill:rgb(214,214,227);fill-rule:nonzero;"/>
        </g>
        <g transform="matrix(1,0,0,1,282.865,329.357)">
            <path d="M581.79,499.507L631.011,501.083L623.951,464.583L586.244,468.169L581.79,499.507Z" style="fill:rgb(237,157,160);fill-rule:nonzero;"/>
        </g>
        <g transform="matrix(1,0,0,1,179.499,261.003)">
            <path d="M837.669,481.344C834.356,485.476 821.539,492.92 820.298,495.402C819.057,497.884 803.759,505.328 795.892,506.569C788.025,507.81 763.223,513.195 758.669,516.086C755.406,518.17 729.213,524.771 712.004,528.432C707.343,529.535 702.625,530.384 697.872,530.976C690.427,531.385 608.959,503.676 608.959,503.676L624.667,487.546L625.536,487.246C629.978,485.746 650.5,478.809 661.89,475.508C674.72,471.786 689.609,456.487 689.609,456.487C689.609,456.487 711.521,449.042 714.424,448.211C717.327,447.38 706.979,419.264 706.979,419.264C706.979,419.264 754.537,412.664 773.149,407.064C791.761,401.464 834.778,403.54 842.632,425.464C850.486,447.388 841.032,477.212 837.669,481.344Z" style="fill:rgb(9,8,20);fill-rule:nonzero;"/>
        </g>
        <g transform="matrix(1,0,0,1,161.442,280.982)">
            <path d="M639,531.256C639,531.256 629.5,541.182 619.979,540.363C610.458,539.544 577.185,542.845 577.185,542.845C571.154,545.25 565.507,548.523 560.422,552.56C552.642,558.689 533.957,555.66 533.957,555.66C533.957,555.66 538.089,515.96 536.823,510.993C535.557,506.026 545,497.507 545,497.507L556.167,494.666L584.456,487.42L624.992,501.478L639,531.256Z" style="fill:rgb(9,8,20);fill-rule:nonzero;"/>
        </g>
        <g transform="matrix(1,0,0,1,179.497,277.072)">
            <path d="M712,512.361C707.339,513.464 702.621,514.313 697.868,514.905C690.423,515.314 608.955,487.605 608.955,487.605L624.663,471.475L625.532,471.175C628.014,472.924 630.048,474.426 631.5,475.567C638.337,480.952 644.937,473.917 647.419,473.917C649.901,473.917 671.4,491.7 671.4,491.7C671.4,491.7 691.252,496.254 694.565,500.385C697.878,504.516 709.454,503.698 711.514,506.585C712.132,507.485 712.206,509.681 712,512.361Z" style="fill-opacity:0.1;fill-rule:nonzero;"/>
        </g>
        <g transform="matrix(1,0,0,1,146.215,261.359)">
            <path d="M592.416,420.6C592.416,420.6 572.341,421.754 560.764,416.878C549.187,412.002 510.724,400.748 499.557,408.652C488.39,416.556 461.503,423.541 473.91,454.982C486.317,486.423 492.11,487.242 492.11,487.242C495.949,490.121 499.3,493.599 502.036,497.542C505.758,503.336 540.5,516.563 549.185,516.563C557.87,516.563 573.169,516.563 594.671,531.452C616.173,546.341 635.619,548 635.619,548C635.619,548 662.919,559.167 671.419,561.648C679.919,564.129 718.754,574.874 727.861,571.574C736.968,568.274 742.75,547.574 742.75,547.574C742.75,547.574 746.882,528.963 744.81,526.074C742.738,523.185 731.162,524.002 727.861,519.874C724.56,515.746 704.696,511.189 704.696,511.189C704.696,511.189 683.243,493.397 680.762,493.397C678.281,493.397 671.68,500.42 664.843,495.047C651.225,484.959 636.917,475.837 622.024,467.747C606.313,459.472 592.416,420.6 592.416,420.6Z" style="fill:rgb(9,8,20);fill-rule:nonzero;"/>
        </g>
        <g transform="matrix(1,0,0,1,161.999,266.444)">
            <path d="M536.27,427.513C543.51,426.034 551.041,428.023 556.606,432.885C566.532,441.161 599.933,457.775 599.933,457.775" style="fill-opacity:0.1;fill-rule:nonzero;"/>
        </g>
        <g transform="matrix(1,0,0,1,199.964,266.436)">
            <path d="M746.481,427C746.481,427 702.223,433.7 693.96,442.795" style="fill-opacity:0.1;fill-rule:nonzero;"/>
        </g>
        <g transform="matrix(1,0,0,1,197.955,280.982)">
            <path d="M799.36,549.458L797.412,549.458C790.412,549.21 766.703,548.465 762.137,549.458C756.765,550.699 685.619,549.458 685.619,549.458L699.528,546.567C699.528,546.567 694.366,528.477 697.642,526.975C697.642,526.975 679.031,514.716 693.064,506.44C707.097,498.164 722.222,501.651 722.222,501.651L757.447,489.715L764.209,487.415C764.209,487.415 803.909,489.487 814.658,516.784C825.407,544.081 799.36,549.458 799.36,549.458Z" style="fill:rgb(9,8,20);fill-rule:nonzero;"/>
        </g>
        <g transform="matrix(1,0,0,1,161.4,218.208)">
            <path d="M533.79,250.96L555.751,231.108C555.751,231.108 640.904,225.525 644.428,254.472C644.428,254.472 674.616,220.153 738.105,227.796L764.967,249.187L690.72,281.769L618.57,306.795L565.428,283.01L533.79,250.96Z" style="fill:rgb(242,242,242);fill-rule:nonzero;"/>
        </g>
        <g transform="matrix(1,0,0,1,248.096,266.338)">
            <path d="M437.38,202.83L447.1,319.052L550.083,324.226L545.612,208.5L545.525,206.552L437.38,202.83Z" style="fill:rgb(108,99,255);fill-rule:nonzero;"/>
        </g>
        <g transform="matrix(1,0,0,1,275.141,265.857)">
            <path d="M655.944,200.83L549.71,216.761L549.71,333.5L653.524,318.5L655.944,200.83Z" style="fill:rgb(108,99,255);fill-rule:nonzero;"/>
        </g>
        <g transform="matrix(1,0,0,1,279.758,271.385)">
            <path d="M626.275,223.79L568.89,230.168L570.143,249.722L626.238,243.593L626.275,223.79Z" style="fill:white;fill-opacity:0.3;fill-rule:nonzero;"/>
        </g>
        <g transform="matrix(1,0,0,1,162.001,237.462)">
            <path d="M538.774,410.164L544.618,425.884C544.618,425.884 553.303,433.329 562.808,429.606C572.313,425.883 580.601,424.035 584.732,420.412C588.863,416.789 594.658,398.587 594.658,398.587C594.658,398.587 600.452,378.735 606.234,373.772C612.016,368.809 627.327,300.431 606.234,307.118C585.141,313.805 569.011,375.844 569.011,375.844C569.011,375.844 565.289,380.385 559.916,380.807C554.543,381.229 543.786,379.976 541.716,384.529C539.646,389.082 532.57,401.07 538.774,410.164Z" style="fill:rgb(237,157,160);fill-rule:nonzero;"/>
        </g>
        <g transform="matrix(1,0,0,1,180.515,224.019)">
            <path d="M644.335,258.587C633.315,261.07 621.745,258.186 613.18,250.82L617.659,366.533C617.659,366.533 628.205,377.948 644.335,375.342L644.335,258.587Z" style="fill:rgb(108,99,255);fill-rule:nonzero;"/>
        </g>
        <g transform="matrix(1,0,0,1,180.515,224.019)">
            <path d="M644.335,258.587C633.315,261.07 621.745,258.186 613.18,250.82L617.659,366.533C617.659,366.533 628.205,377.948 644.335,375.342L644.335,258.587Z" style="fill-opacity:0.1;fill-rule:nonzero;"/>
        </g>
        <g transform="matrix(1,0,0,1,187.041,220.758)">
            <path d="M640.29,248.808C640.29,248.808 683.506,235.594 694.772,237.455" style="fill-opacity:0.1;fill-rule:nonzero;"/>
        </g>
        <g transform="matrix(1,0,0,1,168.177,220.398)">
            <path d="M610.816,243.4C610.816,243.4 568.928,233.474 561.93,236.29" style="fill-opacity:0.1;fill-rule:nonzero;"/>
        </g>
        <g transform="matrix(1,0,0,1,192.328,221.973)">
            <path d="M662.25,249.242C662.25,249.242 691.15,238.642 701.595,243.683" style="fill-opacity:0.1;fill-rule:nonzero;"/>
        </g>
        <g transform="matrix(1,0,0,1,189.505,270.675)">
            <path d="M650.52,466.348C654.998,462.985 659.765,460.024 664.764,457.501C672.208,453.915 685.857,444.61 685.857,444.61" style="fill-opacity:0.1;fill-rule:nonzero;"/>
        </g>
        <g transform="matrix(1,0,0,1,161.891,250.324)">
            <path d="M568.214,360.08C568.214,360.08 550.086,374.907 544.64,376.21C539.194,377.513 535.831,389.077 535.831,389.077" style="fill-opacity:0.1;fill-rule:nonzero;"/>
        </g>
        <g transform="matrix(1,0,0,1,189.93,237.041)">
            <path d="M730.5,408.377L724.718,424.135C724.718,424.135 716.033,431.58 706.518,427.857C697.003,424.134 688.738,422.286 684.594,418.663C680.45,415.04 674.668,396.838 674.668,396.838C674.668,396.838 668.886,376.986 663.092,372.023C657.298,367.06 641.999,298.682 663.092,305.369C684.185,312.056 700.315,374.095 700.315,374.095C700.315,374.095 704.037,378.636 709.41,379.058C714.783,379.48 725.54,378.227 727.61,382.78C729.68,387.333 736.7,399.32 730.5,408.377Z" style="fill:rgb(237,157,160);fill-rule:nonzero;"/>
        </g>
        <g transform="matrix(1,0,0,1,203.25,253.466)">
            <path d="M691.69,358.3C691.69,358.3 707.66,371.3 712.473,372.444C717.286,373.588 720.239,383.726 720.239,383.726" style="fill-opacity:0.1;fill-rule:nonzero;"/>
        </g>
    </g>
    <g transform="matrix(0.735743,0,0,0.735743,-87.336,-14.3348)">
        <g transform="matrix(1,0,0,1,583,248.082)">
            <path d="M799.946,579.777C799.946,580.606 798.288,581.271 796.223,581.271L3.723,581.271C1.658,581.271 0,580.606 0,579.777C0,578.948 1.658,578.283 3.723,578.283L796.223,578.283C798.288,578.283 799.946,578.949 799.946,579.777Z" style="fill:rgb(214,214,227);fill-rule:nonzero;"/>
        </g>
        <g transform="matrix(1,0,0,1,744.23,275.186)">
            <circle cx="55.446" cy="55.446" r="55.446" style="fill:rgb(237,157,160);"/>
        </g>
        <g transform="matrix(1,0,0,1,492.433,242.766)">
            <path d="M333.618,16.03C345.831,20.322 352.818,22.779 359.218,28.945C370.03,39.362 371.818,53.283 373.473,66.219C374.773,76.338 376.448,89.419 370.515,104.37C368.493,109.47 358.682,132.199 339.907,135.07C336.22,135.634 327.563,135.782 330.058,133.94C353.155,116.891 363.01,106.6 362.2,80.323C361.7,64 336.753,46.369 321.941,43.2C314.742,41.73 307.249,43.475 301.441,47.975C288.991,58.196 289.521,100.461 276.393,109.295C270.993,112.929 274.593,87.351 270.787,91.495C263.281,99.679 268.095,112.203 269.445,116.984C275.845,139.625 282.545,122.884 288.788,142.216C295.535,163.089 248.879,185.622 246.865,190.283C243.365,198.391 280.883,228.383 267.148,235.052C249.715,243.523 235.972,232.491 227.869,241.952C223.339,247.235 225.79,252.838 217.606,269.284C214.935,274.653 213.591,277.337 212.416,277.242C206.816,276.792 197.76,232 212.416,190.287C218.565,172.781 224.589,155.633 240.731,142.218C249.27,135.127 256.431,132.576 258.468,124.295C261.38,112.462 249.289,107.416 246.868,88.752C245.211,75.987 244.047,57.731 248.558,46.029C252.814,34.978 256.509,25.387 266.179,16.69C268.5,14.6 287.251,0.4 307.131,0C316.283,-0.184 323.008,12.294 333.618,16.023L333.618,16.03Z" style="fill:rgb(9,8,20);fill-rule:nonzero;"/>
        </g>
        <g transform="matrix(1,0,0,1,1039.46,678.195)">
            <g transform="matrix(1,0,0,1,-55.041,-380.214)">
                <path d="M223.527,525.812L74.016,525.083L59.16,490.238L111.691,486.425L102.535,448.225L206.435,434.758L106.943,400.171L115.732,398.083L275.713,424.183L266.9,483.8L254.307,516.565L223.527,525.812Z" style="fill:rgb(108,99,255);fill-rule:nonzero;"/>
            </g>
            <g transform="matrix(1,0,0,1,-346.668,-552.527)">
                <path d="M600.454,670.36C600.454,670.36 590.554,682.446 598.414,700.718L519.352,735.008L511.765,736.598L508.271,721.31L510.608,702.016L510.608,691.471L600.454,670.36Z" style="fill:rgb(213,214,219);fill-rule:nonzero;"/>
            </g>
            <g transform="matrix(1,0,0,1,-55.041,-473.316)">
                <path d="M59.16,583.339L168.589,563.39L313.589,586.49L223.528,618.914L59.16,583.339Z" style="fill:rgb(108,99,255);fill-rule:nonzero;"/>
            </g>
            <g transform="matrix(1,0,0,1,-138.309,-542.451)">
                <path d="M142.429,652.47C142.429,652.47 132.195,671.86 143.988,689.77L306.262,724.933C306.262,724.933 296.189,709.487 306.782,688.049L142.429,652.47Z" style="fill:rgb(108,99,255);fill-rule:nonzero;"/>
            </g>
            <g transform="matrix(1,0,0,1,-138.309,-542.451)">
                <path d="M142.429,652.47C142.429,652.47 132.195,671.86 143.988,689.77L306.262,724.933C306.262,724.933 296.189,709.487 306.782,688.049L142.429,652.47Z" style="fill-opacity:0.1;fill-rule:nonzero;"/>
            </g>
            <g transform="matrix(1,0,0,1,-145.631,-586.036)">
                <path d="M313.584,768.518L404.178,729.86C404.178,729.86 409.245,730.952 405.969,734.66C402.693,738.368 315.331,772.226 315.331,772.226L151.31,733.354L313.584,768.518Z" style="fill:rgb(108,99,255);fill-rule:nonzero;"/>
            </g>
            <g transform="matrix(1,0,0,1,-145.631,-586.036)">
                <path d="M313.584,768.518L404.178,729.86C404.178,729.86 409.245,730.952 405.969,734.66C402.693,738.368 315.331,772.226 315.331,772.226L151.31,733.354L313.584,768.518Z" style="fill-opacity:0.1;fill-rule:nonzero;"/>
            </g>
            <g transform="matrix(0.9486,-0.316477,0.316477,0.9486,163.638,162.397)">
                <rect x="0" y="0" width="41.309" height="0.437" style="fill-opacity:0.1;"/>
            </g>
            <g transform="matrix(0.934702,-0.355433,0.355433,0.934702,163.623,165.914)">
                <rect x="0" y="0" width="50.333" height="0.437" style="fill-opacity:0.1;"/>
            </g>
            <g transform="matrix(0.925474,-0.37881,0.37881,0.925474,163.886,170.06)">
                <rect x="0" y="0" width="58.34" height="0.437" style="fill-opacity:0.1;"/>
            </g>
            <g transform="matrix(0.911331,-0.411673,0.411673,0.911331,164.516,173.715)">
                <rect x="0" y="0" width="67.155" height="0.437" style="fill-opacity:0.1;"/>
            </g>
            <g transform="matrix(0.916,-0.401,0.401,0.916,165.002,175.494)">
                <rect x="0" y="0" width="73.449" height="0.437" style="fill-opacity:0.1;"/>
            </g>
            <g transform="matrix(0.918032,-0.396507,0.396507,0.918032,166.018,178.481)">
                <rect x="0" y="0" width="87.895" height="0.437" style="fill-opacity:0.1;"/>
            </g>
            <g transform="matrix(1,0,0,1,-110.965,-419.148)">
                <path d="M158.46,487.155L267.885,467.21L412.885,490.31L322.824,522.734L158.46,487.155Z" style="fill:rgb(9,8,20);fill-rule:nonzero;"/>
            </g>
            <g transform="matrix(1,0,0,1,-194.208,-488.283)">
                <path d="M241.685,556.29C241.685,556.29 231.446,575.68 243.24,593.59L405.514,628.753C405.514,628.753 395.446,613.294 406.051,591.865L241.685,556.29Z" style="fill:rgb(58,55,104);fill-rule:nonzero;"/>
            </g>
            <g transform="matrix(1,0,0,1,-194.208,-488.283)">
                <path d="M241.685,556.29C241.685,556.29 231.446,575.68 243.24,593.59L405.514,628.753C405.514,628.753 395.446,613.294 406.051,591.865L354.735,580.757L241.685,556.29Z" style="fill:rgb(9,8,20);fill-rule:nonzero;"/>
            </g>
            <g transform="matrix(1,0,0,1,-201.55,-531.869)">
                <path d="M412.874,672.338L503.474,633.68C503.474,633.68 508.537,634.772 505.26,638.48C501.983,642.188 414.622,676.045 414.622,676.045L250.6,637.174L412.874,672.338Z" style="fill:rgb(58,55,104);fill-rule:nonzero;"/>
            </g>
            <g transform="matrix(1,0,0,1,-201.55,-531.869)">
                <path d="M412.874,672.338L503.474,633.68C503.474,633.68 508.537,634.772 505.26,638.48C501.983,642.188 414.622,676.045 414.622,676.045L250.6,637.174L412.874,672.338Z" style="fill:rgb(9,8,20);fill-rule:nonzero;"/>
            </g>
            <g transform="matrix(1,0,0,1,-116.276,-357.18)">
                <path d="M167.89,377.129L277.319,357.18L422.319,380.28L332.257,412.7L167.89,377.129Z" style="fill:rgb(108,99,255);fill-rule:nonzero;"/>
            </g>
            <g transform="matrix(1,0,0,1,-199.529,-426.315)">
                <path d="M251.143,446.26C251.143,446.26 240.891,465.65 252.685,483.56L414.959,518.723C414.959,518.723 404.886,503.264 415.492,481.839L251.143,446.26Z" style="fill:rgb(108,99,255);fill-rule:nonzero;"/>
            </g>
            <g transform="matrix(1,0,0,1,-199.529,-426.315)">
                <path d="M251.143,446.26C251.143,446.26 240.891,465.65 252.685,483.56L414.959,518.723C414.959,518.723 404.886,503.264 415.492,481.839L251.143,446.26Z" style="fill-opacity:0.1;fill-rule:nonzero;"/>
            </g>
            <g transform="matrix(1,0,0,1,-206.867,-474.406)">
                <path d="M422.314,566.813L512.908,537.765C512.908,537.765 517.975,538.857 514.699,542.565C511.423,546.273 424.061,570.521 424.061,570.521L260.04,531.65L422.314,566.813Z" style="fill:rgb(108,99,255);fill-rule:nonzero;"/>
            </g>
            <g transform="matrix(1,0,0,1,-206.867,-474.406)">
                <path d="M422.314,566.813L512.908,537.765C512.908,537.765 517.975,538.857 514.699,542.565C511.423,546.273 424.061,570.521 424.061,570.521L260.04,531.65L422.314,566.813Z" style="fill-opacity:0.1;fill-rule:nonzero;"/>
            </g>
        </g>
        <g transform="matrix(1,0,0,1,198.203,221.815)">
            <path d="M686.65,394.693C686.65,394.693 705.634,444.323 716.428,439.36C727.222,434.397 724.295,413.304 726.354,407.522C728.413,401.74 730.697,357.892 730.697,357.892C730.697,357.892 731.739,326.873 733.797,320.592C735.708,314.822 737.259,285.727 737.519,281.148L737.519,280.54L735.472,244.558L723.883,241.667L697.01,251.6L693.288,272.854L691.836,281.154L691.216,284.69L686.65,394.693Z" style="fill:rgb(237,157,160);fill-rule:nonzero;"/>
        </g>
        <g transform="matrix(1,0,0,1,159.526,222.237)">
            <path d="M576.871,396.443C576.871,396.443 557.887,446.073 547.093,441.11C536.299,436.147 539.227,415.054 537.167,409.272C535.107,403.49 532.824,359.642 532.824,359.642C532.824,359.642 531.782,328.623 529.724,322.342C527.813,316.572 526.262,287.477 526.002,282.898L526.002,282.29L528.062,246.308L539.651,243.417L566.526,253.343L570.248,274.597L571.7,282.897L572.32,286.433L576.871,396.443Z" style="fill:rgb(237,157,160);fill-rule:nonzero;"/>
        </g>
        <g transform="matrix(1,0,0,1,165.953,260.755)">
            <path d="M563,407.356C563,407.356 548.52,423.275 553.893,426.166C559.266,429.057 594.019,483.241 594.019,483.241C594.019,483.241 708.168,497.3 729.7,476.206C751.232,455.112 750.793,417.431 750.793,417.431C750.793,417.431 733.493,421.153 731.611,419.131C729.729,417.109 719.365,407.356 719.365,407.356C719.365,407.356 572.925,398.472 563,407.356Z" style="fill:rgb(9,8,20);fill-rule:nonzero;"/>
        </g>
        <g transform="matrix(1,0,0,1,159.926,200.319)">
            <path d="M774.522,266.579L737.3,296.357L726.046,297.176L721.914,297.476L652.514,302.563L580.554,297.3L569.846,296.518L556.198,295.525L527.661,268.225C527.661,268.225 547.861,246.586 565.554,231.982C572.527,226.212 579.115,221.547 583.917,219.711L584.736,219.426C587.756,218.248 617.336,215.165 619.49,212.738C633.461,198.333 619.49,163.989 619.49,163.989C619.49,163.989 681.119,132.151 673.674,173.915C666.229,215.679 687.014,209.498 687.874,209.893L712.964,210.642L717.542,212.742L729.217,218.09L755.558,230.175C776.234,239.692 774.522,266.579 774.522,266.579Z" style="fill:rgb(237,157,160);fill-rule:nonzero;"/>
        </g>
        <g transform="matrix(1,0,0,1,159.526,213.314)">
            <path d="M775.008,293.064L526,293.064L526,292.456L528.06,256.474C528.06,256.474 548.26,234.835 565.953,220.231L722.289,214.031L729.56,206.363L755.9,218.445C776.583,227.945 774.921,254.836 774.921,254.836C774.921,254.836 777.75,285.992 775.008,293.064Z" style="fill-opacity:0.1;fill-rule:nonzero;"/>
        </g>
        <g transform="matrix(1,0,0,1,159.526,213.073)">
            <path d="M775.008,292.064L526,292.064L526,291.456L528.06,255.474C528.06,255.474 548.26,233.835 565.953,219.231L722.289,213.031L729.56,205.363L755.9,217.445C776.583,226.945 774.921,253.836 774.921,253.836C774.921,253.836 777.75,284.992 775.008,292.064Z" style="fill:rgb(214,214,227);fill-rule:nonzero;"/>
        </g>
        <g transform="matrix(1,0,0,1,165.674,211.627)">
            <path d="M711.735,201.4L715.892,264.79L720.346,285.883L723.746,302.013C723.746,302.013 732.431,426.089 729.946,432.293C727.461,438.497 731.187,443.46 731.708,446.76C732.229,450.06 731.187,458.349 731.596,462.071C732.005,465.793 731.596,467.443 722.096,466.116C712.596,464.789 699.34,462.481 699.34,462.481C699.34,462.481 665.84,464.963 654.263,460.831C642.686,456.699 620.763,456.687 620.763,456.687C620.763,456.687 587.672,457.518 576.927,456.278C566.182,455.038 560.375,469.517 553.353,465.373C546.331,461.229 561.616,421.128 566.58,409.539C571.544,397.95 559.967,368.594 559.967,368.594L574.856,285.994L578.169,267.271L578.169,208.408L578.988,208.123C582.008,206.945 584.705,205.065 586.854,202.639L590.576,261.873L707.207,266.017L707.207,199.35" style="fill:rgb(214,214,227);fill-rule:nonzero;"/>
        </g>
        <g transform="matrix(1,0,0,1,282.865,329.357)">
            <path d="M581.79,499.507L631.011,501.083L623.951,464.583L586.244,468.169L581.79,499.507Z" style="fill:rgb(237,157,160);fill-rule:nonzero;"/>
        </g>
        <g transform="matrix(1,0,0,1,179.499,261.003)">
            <path d="M837.669,481.344C834.356,485.476 821.539,492.92 820.298,495.402C819.057,497.884 803.759,505.328 795.892,506.569C788.025,507.81 763.223,513.195 758.669,516.086C755.406,518.17 729.213,524.771 712.004,528.432C707.343,529.535 702.625,530.384 697.872,530.976C690.427,531.385 608.959,503.676 608.959,503.676L624.667,487.546L625.536,487.246C629.978,485.746 650.5,478.809 661.89,475.508C674.72,471.786 689.609,456.487 689.609,456.487C689.609,456.487 711.521,449.042 714.424,448.211C717.327,447.38 706.979,419.264 706.979,419.264C706.979,419.264 754.537,412.664 773.149,407.064C791.761,401.464 834.778,403.54 842.632,425.464C850.486,447.388 841.032,477.212 837.669,481.344Z" style="fill:rgb(9,8,20);fill-rule:nonzero;"/>
        </g>
        <g transform="matrix(1,0,0,1,161.442,280.982)">
            <path d="M639,531.256C639,531.256 629.5,541.182 619.979,540.363C610.458,539.544 577.185,542.845 577.185,542.845C571.154,545.25 565.507,548.523 560.422,552.56C552.642,558.689 533.957,555.66 533.957,555.66C533.957,555.66 538.089,515.96 536.823,510.993C535.557,506.026 545,497.507 545,497.507L556.167,494.666L584.456,487.42L624.992,501.478L639,531.256Z" style="fill:rgb(9,8,20);fill-rule:nonzero;"/>
        </g>
        <g transform="matrix(1,0,0,1,179.497,277.072)">
            <path d="M712,512.361C707.339,513.464 702.621,514.313 697.868,514.905C690.423,515.314 608.955,487.605 608.955,487.605L624.663,471.475L625.532,471.175C628.014,472.924 630.048,474.426 631.5,475.567C638.337,480.952 644.937,473.917 647.419,473.917C649.901,473.917 671.4,491.7 671.4,491.7C671.4,491.7 691.252,496.254 694.565,500.385C697.878,504.516 709.454,503.698 711.514,506.585C712.132,507.485 712.206,509.681 712,512.361Z" style="fill-opacity:0.1;fill-rule:nonzero;"/>
        </g>
        <g transform="matrix(1,0,0,1,146.215,261.359)">
            <path d="M592.416,420.6C592.416,420.6 572.341,421.754 560.764,416.878C549.187,412.002 510.724,400.748 499.557,408.652C488.39,416.556 461.503,423.541 473.91,454.982C486.317,486.423 492.11,487.242 492.11,487.242C495.949,490.121 499.3,493.599 502.036,497.542C505.758,503.336 540.5,516.563 549.185,516.563C557.87,516.563 573.169,516.563 594.671,531.452C616.173,546.341 635.619,548 635.619,548C635.619,548 662.919,559.167 671.419,561.648C679.919,564.129 718.754,574.874 727.861,571.574C736.968,568.274 742.75,547.574 742.75,547.574C742.75,547.574 746.882,528.963 744.81,526.074C742.738,523.185 731.162,524.002 727.861,519.874C724.56,515.746 704.696,511.189 704.696,511.189C704.696,511.189 683.243,493.397 680.762,493.397C678.281,493.397 671.68,500.42 664.843,495.047C651.225,484.959 636.917,475.837 622.024,467.747C606.313,459.472 592.416,420.6 592.416,420.6Z" style="fill:rgb(9,8,20);fill-rule:nonzero;"/>
        </g>
        <g transform="matrix(1,0,0,1,161.999,266.444)">
            <path d="M536.27,427.513C543.51,426.034 551.041,428.023 556.606,432.885C566.532,441.161 599.933,457.775 599.933,457.775" style="fill-opacity:0.1;fill-rule:nonzero;"/>
        </g>
        <g transform="matrix(1,0,0,1,199.964,266.436)">
            <path d="M746.481,427C746.481,427 702.223,433.7 693.96,442.795" style="fill-opacity:0.1;fill-rule:nonzero;"/>
        </g>
        <g transform="matrix(1,0,0,1,197.955,280.982)">
            <path d="M799.36,549.458L797.412,549.458C790.412,549.21 766.703,548.465 762.137,549.458C756.765,550.699 685.619,549.458 685.619,549.458L699.528,546.567C699.528,546.567 694.366,528.477 697.642,526.975C697.642,526.975 679.031,514.716 693.064,506.44C707.097,498.164 722.222,501.651 722.222,501.651L757.447,489.715L764.209,487.415C764.209,487.415 803.909,489.487 814.658,516.784C825.407,544.081 799.36,549.458 799.36,549.458Z" style="fill:rgb(9,8,20);fill-rule:nonzero;"/>
        </g>
        <g transform="matrix(1,0,0,1,161.4,218.208)">
            <path d="M533.79,250.96L555.751,231.108C555.751,231.108 640.904,225.525 644.428,254.472C644.428,254.472 674.616,220.153 738.105,227.796L764.967,249.187L690.72,281.769L618.57,306.795L565.428,283.01L533.79,250.96Z" style="fill:rgb(242,242,242);fill-rule:nonzero;"/>
        </g>
        <g transform="matrix(1,0,0,1,248.096,266.338)">
            <path d="M437.38,202.83L447.1,319.052L550.083,324.226L545.612,208.5L545.525,206.552L437.38,202.83Z" style="fill:rgb(108,99,255);fill-rule:nonzero;"/>
        </g>
        <g transform="matrix(1,0,0,1,275.141,265.857)">
            <path d="M655.944,200.83L549.71,216.761L549.71,333.5L653.524,318.5L655.944,200.83Z" style="fill:rgb(108,99,255);fill-rule:nonzero;"/>
        </g>
        <g transform="matrix(1,0,0,1,279.758,271.385)">
            <path d="M626.275,223.79L568.89,230.168L570.143,249.722L626.238,243.593L626.275,223.79Z" style="fill:white;fill-opacity:0.3;fill-rule:nonzero;"/>
        </g>
        <g transform="matrix(1,0,0,1,162.001,237.462)">
            <path d="M538.774,410.164L544.618,425.884C544.618,425.884 553.303,433.329 562.808,429.606C572.313,425.883 580.601,424.035 584.732,420.412C588.863,416.789 594.658,398.587 594.658,398.587C594.658,398.587 600.452,378.735 606.234,373.772C612.016,368.809 627.327,300.431 606.234,307.118C585.141,313.805 569.011,375.844 569.011,375.844C569.011,375.844 565.289,380.385 559.916,380.807C554.543,381.229 543.786,379.976 541.716,384.529C539.646,389.082 532.57,401.07 538.774,410.164Z" style="fill:rgb(237,157,160);fill-rule:nonzero;"/>
        </g>
        <g transform="matrix(1,0,0,1,180.515,224.019)">
            <path d="M644.335,258.587C633.315,261.07 621.745,258.186 613.18,250.82L617.659,366.533C617.659,366.533 628.205,377.948 644.335,375.342L644.335,258.587Z" style="fill:rgb(108,99,255);fill-rule:nonzero;"/>
        </g>
        <g transform="matrix(1,0,0,1,180.515,224.019)">
            <path d="M644.335,258.587C633.315,261.07 621.745,258.186 613.18,250.82L617.659,366.533C617.659,366.533 628.205,377.948 644.335,375.342L644.335,258.587Z" style="fill-opacity:0.1;fill-rule:nonzero;"/>
        </g>
        <g transform="matrix(1,0,0,1,187.041,220.758)">
            <path d="M640.29,248.808C640.29,248.808 683.506,235.594 694.772,237.455" style="fill-opacity:0.1;fill-rule:nonzero;"/>
        </g>
        <g transform="matrix(1,0,0,1,168.177,220.398)">
            <path d="M610.816,243.4C610.816,243.4 568.928,233.474 561.93,236.29" style="fill-opacity:0.1;fill-rule:nonzero;"/>
        </g>
        <g transform="matrix(1,0,0,1,192.328,221.973)">
            <path d="M662.25,249.242C662.25,249.242 691.15,238.642 701.595,243.683" style="fill-opacity:0.1;fill-rule:nonzero;"/>
        </g>
        <g transform="matrix(1,0,0,1,189.505,270.675)">
            <path d="M650.52,466.348C654.998,462.985 659.765,460.024 664.764,457.501C672.208,453.915 685.857,444.61 685.857,444.61" style="fill-opacity:0.1;fill-rule:nonzero;"/>
        </g>
        <g transform="matrix(1,0,0,1,161.891,250.324)">
            <path d="M568.214,360.08C568.214,360.08 550.086,374.907 544.64,376.21C539.194,377.513 535.831,389.077 535.831,389.077" style="fill-opacity:0.1;fill-rule:nonzero;"/>
        </g>
        <g transform="matrix(1,0,0,1,189.93,237.041)">
            <path d="M730.5,408.377L724.718,424.135C724.718,424.135 716.033,431.58 706.518,427.857C697.003,424.134 688.738,422.286 684.594,418.663C680.45,415.04 674.668,396.838 674.668,396.838C674.668,396.838 668.886,376.986 663.092,372.023C657.298,367.06 641.999,298.682 663.092,305.369C684.185,312.056 700.315,374.095 700.315,374.095C700.315,374.095 704.037,378.636 709.41,379.058C714.783,379.48 725.54,378.227 727.61,382.78C729.68,387.333 736.7,399.32 730.5,408.377Z" style="fill:rgb(237,157,160);fill-rule:nonzero;"/>
        </g>
        <g transform="matrix(1,0,0,1,203.25,253.466)">
            <path d="M691.69,358.3C691.69,358.3 707.66,371.3 712.473,372.444C717.286,373.588 720.239,383.726 720.239,383.726" style="fill-opacity:0.1;fill-rule:nonzero;"/>
        </g>
    </g>
    <g transform="matrix(0.735743,0,0,0.735743,-27.8062,-258.005)">
        <g transform="matrix(1,0,0,1,583,248.082)">
            <path d="M799.946,579.777C799.946,580.606 798.288,581.271 796.223,581.271L3.723,581.271C1.658,581.271 0,580.606 0,579.777C0,578.948 1.658,578.283 3.723,578.283L796.223,578.283C798.288,578.283 799.946,578.949 799.946,579.777Z" style="fill:rgb(214,214,227);fill-rule:nonzero;"/>
        </g>
        <g transform="matrix(1,0,0,1,744.23,275.186)">
            <circle cx="55.446" cy="55.446" r="55.446" style="fill:rgb(237,157,160);"/>
        </g>
        <g transform="matrix(1,0,0,1,492.433,242.766)">
            <path d="M333.618,16.03C345.831,20.322 352.818,22.779 359.218,28.945C370.03,39.362 371.818,53.283 373.473,66.219C374.773,76.338 376.448,89.419 370.515,104.37C368.493,109.47 358.682,132.199 339.907,135.07C336.22,135.634 327.563,135.782 330.058,133.94C353.155,116.891 363.01,106.6 362.2,80.323C361.7,64 336.753,46.369 321.941,43.2C314.742,41.73 307.249,43.475 301.441,47.975C288.991,58.196 289.521,100.461 276.393,109.295C270.993,112.929 274.593,87.351 270.787,91.495C263.281,99.679 268.095,112.203 269.445,116.984C275.845,139.625 282.545,122.884 288.788,142.216C295.535,163.089 248.879,185.622 246.865,190.283C243.365,198.391 280.883,228.383 267.148,235.052C249.715,243.523 235.972,232.491 227.869,241.952C223.339,247.235 225.79,252.838 217.606,269.284C214.935,274.653 213.591,277.337 212.416,277.242C206.816,276.792 197.76,232 212.416,190.287C218.565,172.781 224.589,155.633 240.731,142.218C249.27,135.127 256.431,132.576 258.468,124.295C261.38,112.462 249.289,107.416 246.868,88.752C245.211,75.987 244.047,57.731 248.558,46.029C252.814,34.978 256.509,25.387 266.179,16.69C268.5,14.6 287.251,0.4 307.131,0C316.283,-0.184 323.008,12.294 333.618,16.023L333.618,16.03Z" style="fill:rgb(9,8,20);fill-rule:nonzero;"/>
        </g>
        <g transform="matrix(1,0,0,1,1039.46,678.195)">
            <g transform="matrix(1,0,0,1,-55.041,-380.214)">
                <path d="M223.527,525.812L74.016,525.083L59.16,490.238L111.691,486.425L102.535,448.225L206.435,434.758L106.943,400.171L115.732,398.083L275.713,424.183L266.9,483.8L254.307,516.565L223.527,525.812Z" style="fill:rgb(108,99,255);fill-rule:nonzero;"/>
            </g>
            <g transform="matrix(1,0,0,1,-55.041,-473.316)">
                <path d="M59.16,583.339L168.589,563.39L313.589,586.49L223.528,618.914L59.16,583.339Z" style="fill:rgb(108,99,255);fill-rule:nonzero;"/>
            </g>
            <g transform="matrix(1,0,0,1,-138.309,-542.451)">
                <path d="M142.429,652.47C142.429,652.47 132.195,671.86 143.988,689.77L306.262,724.933C306.262,724.933 296.189,709.487 306.782,688.049L142.429,652.47Z" style="fill:rgb(108,99,255);fill-rule:nonzero;"/>
            </g>
            <g transform="matrix(1,0,0,1,-138.309,-542.451)">
                <path d="M142.429,652.47C142.429,652.47 132.195,671.86 143.988,689.77L306.262,724.933C306.262,724.933 296.189,709.487 306.782,688.049L142.429,652.47Z" style="fill-opacity:0.1;fill-rule:nonzero;"/>
            </g>
            <g transform="matrix(1,0,0,1,-145.631,-586.036)">
                <path d="M313.584,768.518L404.178,729.86C404.178,729.86 409.245,730.952 405.969,734.66C402.693,738.368 315.331,772.226 315.331,772.226L151.31,733.354L313.584,768.518Z" style="fill:rgb(108,99,255);fill-rule:nonzero;"/>
            </g>
            <g transform="matrix(1,0,0,1,-145.631,-586.036)">
                <path d="M313.584,768.518L404.178,729.86C404.178,729.86 409.245,730.952 405.969,734.66C402.693,738.368 315.331,772.226 315.331,772.226L151.31,733.354L313.584,768.518Z" style="fill-opacity:0.1;fill-rule:nonzero;"/>
            </g>
            <g transform="matrix(1,0,0,1,-110.965,-419.148)">
                <path d="M158.46,487.155L267.885,467.21L412.885,490.31L322.824,522.734L158.46,487.155Z" style="fill:rgb(9,8,20);fill-rule:nonzero;"/>
            </g>
            <g transform="matrix(1,0,0,1,-194.208,-488.283)">
                <path d="M241.685,556.29C241.685,556.29 231.446,575.68 243.24,593.59L405.514,628.753C405.514,628.753 395.446,613.294 406.051,591.865L241.685,556.29Z" style="fill:rgb(58,55,104);fill-rule:nonzero;"/>
            </g>
            <g transform="matrix(1,0,0,1,-194.208,-488.283)">
                <path d="M241.685,556.29C241.685,556.29 231.446,575.68 243.24,593.59L405.514,628.753C405.514,628.753 395.446,613.294 406.051,591.865L354.735,580.757L241.685,556.29Z" style="fill:rgb(9,8,20);fill-rule:nonzero;"/>
            </g>
            <g transform="matrix(1,0,0,1,-201.55,-531.869)">
                <path d="M412.874,672.338L503.474,633.68C503.474,633.68 508.537,634.772 505.26,638.48C501.983,642.188 414.622,676.045 414.622,676.045L250.6,637.174L412.874,672.338Z" style="fill:rgb(58,55,104);fill-rule:nonzero;"/>
            </g>
            <g transform="matrix(1,0,0,1,-201.55,-531.869)">
                <path d="M412.874,672.338L503.474,633.68C503.474,633.68 508.537,634.772 505.26,638.48C501.983,642.188 414.622,676.045 414.622,676.045L250.6,637.174L412.874,672.338Z" style="fill:rgb(9,8,20);fill-rule:nonzero;"/>
            </g>
            <g transform="matrix(1,0,0,1,-116.276,-357.18)">
                <path d="M167.89,377.129L277.319,357.18L422.319,380.28L332.257,412.7L167.89,377.129Z" style="fill:rgb(108,99,255);fill-rule:nonzero;"/>
            </g>
            <g transform="matrix(1,0,0,1,-199.529,-426.315)">
                <path d="M251.143,446.26C251.143,446.26 240.891,465.65 252.685,483.56L414.959,518.723C414.959,518.723 404.886,503.264 415.492,481.839L251.143,446.26Z" style="fill:rgb(108,99,255);fill-rule:nonzero;"/>
            </g>
            <g transform="matrix(1,0,0,1,-199.529,-426.315)">
                <path d="M251.143,446.26C251.143,446.26 240.891,465.65 252.685,483.56L414.959,518.723C414.959,518.723 404.886,503.264 415.492,481.839L251.143,446.26Z" style="fill-opacity:0.1;fill-rule:nonzero;"/>
            </g>
            <g transform="matrix(1,0,0,1,-206.867,-474.406)">
                <path d="M422.314,566.813L512.908,537.765C512.908,537.765 517.975,538.857 514.699,542.565C511.423,546.273 424.061,570.521 424.061,570.521L260.04,531.65L422.314,566.813Z" style="fill:rgb(108,99,255);fill-rule:nonzero;"/>
            </g>
            <g transform="matrix(1,0,0,1,-206.867,-474.406)">
                <path d="M422.314,566.813L512.908,537.765C512.908,537.765 517.975,538.857 514.699,542.565C511.423,546.273 424.061,570.521 424.061,570.521L260.04,531.65L422.314,566.813Z" style="fill-opacity:0.1;fill-rule:nonzero;"/>
            </g>
        </g>
        <g transform="matrix(1,0,0,1,198.203,221.815)">
            <path d="M686.65,394.693C686.65,394.693 705.634,444.323 716.428,439.36C727.222,434.397 724.295,413.304 726.354,407.522C728.413,401.74 730.697,357.892 730.697,357.892C730.697,357.892 731.739,326.873 733.797,320.592C735.708,314.822 737.259,285.727 737.519,281.148L737.519,280.54L735.472,244.558L723.883,241.667L697.01,251.6L693.288,272.854L691.836,281.154L691.216,284.69L686.65,394.693Z" style="fill:rgb(237,157,160);fill-rule:nonzero;"/>
        </g>
        <g transform="matrix(1,0,0,1,159.526,222.237)">
            <path d="M576.871,396.443C576.871,396.443 557.887,446.073 547.093,441.11C536.299,436.147 539.227,415.054 537.167,409.272C535.107,403.49 532.824,359.642 532.824,359.642C532.824,359.642 531.782,328.623 529.724,322.342C527.813,316.572 526.262,287.477 526.002,282.898L526.002,282.29L528.062,246.308L539.651,243.417L566.526,253.343L570.248,274.597L571.7,282.897L572.32,286.433L576.871,396.443Z" style="fill:rgb(237,157,160);fill-rule:nonzero;"/>
        </g>
        <g transform="matrix(1,0,0,1,165.953,260.755)">
            <path d="M563,407.356C563,407.356 548.52,423.275 553.893,426.166C559.266,429.057 594.019,483.241 594.019,483.241C594.019,483.241 708.168,497.3 729.7,476.206C751.232,455.112 750.793,417.431 750.793,417.431C750.793,417.431 733.493,421.153 731.611,419.131C729.729,417.109 719.365,407.356 719.365,407.356C719.365,407.356 572.925,398.472 563,407.356Z" style="fill:rgb(9,8,20);fill-rule:nonzero;"/>
        </g>
        <g transform="matrix(1,0,0,1,159.926,200.319)">
            <path d="M774.522,266.579L737.3,296.357L726.046,297.176L721.914,297.476L652.514,302.563L580.554,297.3L569.846,296.518L556.198,295.525L527.661,268.225C527.661,268.225 547.861,246.586 565.554,231.982C572.527,226.212 579.115,221.547 583.917,219.711L584.736,219.426C587.756,218.248 617.336,215.165 619.49,212.738C633.461,198.333 619.49,163.989 619.49,163.989C619.49,163.989 681.119,132.151 673.674,173.915C666.229,215.679 687.014,209.498 687.874,209.893L712.964,210.642L717.542,212.742L729.217,218.09L755.558,230.175C776.234,239.692 774.522,266.579 774.522,266.579Z" style="fill:rgb(237,157,160);fill-rule:nonzero;"/>
        </g>
        <g transform="matrix(1,0,0,1,159.526,213.314)">
            <path d="M775.008,293.064L526,293.064L526,292.456L528.06,256.474C528.06,256.474 548.26,234.835 565.953,220.231L722.289,214.031L729.56,206.363L755.9,218.445C776.583,227.945 774.921,254.836 774.921,254.836C774.921,254.836 777.75,285.992 775.008,293.064Z" style="fill-opacity:0.1;fill-rule:nonzero;"/>
        </g>
        <g transform="matrix(1,0,0,1,159.526,213.073)">
            <path d="M775.008,292.064L526,292.064L526,291.456L528.06,255.474C528.06,255.474 548.26,233.835 565.953,219.231L722.289,213.031L729.56,205.363L755.9,217.445C776.583,226.945 774.921,253.836 774.921,253.836C774.921,253.836 777.75,284.992 775.008,292.064Z" style="fill:rgb(214,214,227);fill-rule:nonzero;"/>
        </g>
        <g transform="matrix(1,0,0,1,165.674,211.627)">
            <path d="M711.735,201.4L715.892,264.79L720.346,285.883L723.746,302.013C723.746,302.013 732.431,426.089 729.946,432.293C727.461,438.497 731.187,443.46 731.708,446.76C732.229,450.06 731.187,458.349 731.596,462.071C732.005,465.793 731.596,467.443 722.096,466.116C712.596,464.789 699.34,462.481 699.34,462.481C699.34,462.481 665.84,464.963 654.263,460.831C642.686,456.699 620.763,456.687 620.763,456.687C620.763,456.687 587.672,457.518 576.927,456.278C566.182,455.038 560.375,469.517 553.353,465.373C546.331,461.229 561.616,421.128 566.58,409.539C571.544,397.95 559.967,368.594 559.967,368.594L574.856,285.994L578.169,267.271L578.169,208.408L578.988,208.123C582.008,206.945 584.705,205.065 586.854,202.639L590.576,261.873L707.207,266.017L707.207,199.35" style="fill:rgb(214,214,227);fill-rule:nonzero;"/>
        </g>
        <g transform="matrix(1,0,0,1,282.865,329.357)">
            <path d="M581.79,499.507L631.011,501.083L623.951,464.583L586.244,468.169L581.79,499.507Z" style="fill:rgb(237,157,160);fill-rule:nonzero;"/>
        </g>
        <g transform="matrix(1,0,0,1,179.499,261.003)">
            <path d="M837.669,481.344C834.356,485.476 821.539,492.92 820.298,495.402C819.057,497.884 803.759,505.328 795.892,506.569C788.025,507.81 763.223,513.195 758.669,516.086C755.406,518.17 729.213,524.771 712.004,528.432C707.343,529.535 702.625,530.384 697.872,530.976C690.427,531.385 608.959,503.676 608.959,503.676L624.667,487.546L625.536,487.246C629.978,485.746 650.5,478.809 661.89,475.508C674.72,471.786 689.609,456.487 689.609,456.487C689.609,456.487 711.521,449.042 714.424,448.211C717.327,447.38 706.979,419.264 706.979,419.264C706.979,419.264 754.537,412.664 773.149,407.064C791.761,401.464 834.778,403.54 842.632,425.464C850.486,447.388 841.032,477.212 837.669,481.344Z" style="fill:rgb(9,8,20);fill-rule:nonzero;"/>
        </g>
        <g transform="matrix(1,0,0,1,161.442,280.982)">
            <path d="M639,531.256C639,531.256 629.5,541.182 619.979,540.363C610.458,539.544 577.185,542.845 577.185,542.845C571.154,545.25 565.507,548.523 560.422,552.56C552.642,558.689 533.957,555.66 533.957,555.66C533.957,555.66 538.089,515.96 536.823,510.993C535.557,506.026 545,497.507 545,497.507L556.167,494.666L584.456,487.42L624.992,501.478L639,531.256Z" style="fill:rgb(9,8,20);fill-rule:nonzero;"/>
        </g>
        <g transform="matrix(1,0,0,1,179.497,277.072)">
            <path d="M712,512.361C707.339,513.464 702.621,514.313 697.868,514.905C690.423,515.314 608.955,487.605 608.955,487.605L624.663,471.475L625.532,471.175C628.014,472.924 630.048,474.426 631.5,475.567C638.337,480.952 644.937,473.917 647.419,473.917C649.901,473.917 671.4,491.7 671.4,491.7C671.4,491.7 691.252,496.254 694.565,500.385C697.878,504.516 709.454,503.698 711.514,506.585C712.132,507.485 712.206,509.681 712,512.361Z" style="fill-opacity:0.1;fill-rule:nonzero;"/>
        </g>
        <g transform="matrix(1,0,0,1,146.215,261.359)">
            <path d="M592.416,420.6C592.416,420.6 572.341,421.754 560.764,416.878C549.187,412.002 510.724,400.748 499.557,408.652C488.39,416.556 461.503,423.541 473.91,454.982C486.317,486.423 492.11,487.242 492.11,487.242C495.949,490.121 499.3,493.599 502.036,497.542C505.758,503.336 540.5,516.563 549.185,516.563C557.87,516.563 573.169,516.563 594.671,531.452C616.173,546.341 635.619,548 635.619,548C635.619,548 662.919,559.167 671.419,561.648C679.919,564.129 718.754,574.874 727.861,571.574C736.968,568.274 742.75,547.574 742.75,547.574C742.75,547.574 746.882,528.963 744.81,526.074C742.738,523.185 731.162,524.002 727.861,519.874C724.56,515.746 704.696,511.189 704.696,511.189C704.696,511.189 683.243,493.397 680.762,493.397C678.281,493.397 671.68,500.42 664.843,495.047C651.225,484.959 636.917,475.837 622.024,467.747C606.313,459.472 592.416,420.6 592.416,420.6Z" style="fill:rgb(9,8,20);fill-rule:nonzero;"/>
        </g>
        <g transform="matrix(1,0,0,1,161.999,266.444)">
            <path d="M536.27,427.513C543.51,426.034 551.041,428.023 556.606,432.885C566.532,441.161 599.933,457.775 599.933,457.775" style="fill-opacity:0.1;fill-rule:nonzero;"/>
        </g>
        <g transform="matrix(1,0,0,1,199.964,266.436)">
            <path d="M746.481,427C746.481,427 702.223,433.7 693.96,442.795" style="fill-opacity:0.1;fill-rule:nonzero;"/>
        </g>
        <g transform="matrix(1,0,0,1,197.955,280.982)">
            <path d="M799.36,549.458L797.412,549.458C790.412,549.21 766.703,548.465 762.137,549.458C756.765,550.699 685.619,549.458 685.619,549.458L699.528,546.567C699.528,546.567 694.366,528.477 697.642,526.975C697.642,526.975 679.031,514.716 693.064,506.44C707.097,498.164 722.222,501.651 722.222,501.651L757.447,489.715L764.209,487.415C764.209,487.415 803.909,489.487 814.658,516.784C825.407,544.081 799.36,549.458 799.36,549.458Z" style="fill:rgb(9,8,20);fill-rule:nonzero;"/>
        </g>
        <g transform="matrix(1,0,0,1,161.4,218.208)">
            <path d="M533.79,250.96L555.751,231.108C555.751,231.108 640.904,225.525 644.428,254.472C644.428,254.472 674.616,220.153 738.105,227.796L764.967,249.187L690.72,281.769L618.57,306.795L565.428,283.01L533.79,250.96Z" style="fill:rgb(242,242,242);fill-rule:nonzero;"/>
        </g>
        <g transform="matrix(1,0,0,1,248.096,266.338)">
            <path d="M437.38,202.83L447.1,319.052L550.083,324.226L545.612,208.5L545.525,206.552L437.38,202.83Z" style="fill:rgb(108,99,255);fill-rule:nonzero;"/>
        </g>
        <g transform="matrix(1,0,0,1,275.141,265.857)">
            <path d="M655.944,200.83L549.71,216.761L549.71,333.5L653.524,318.5L655.944,200.83Z" style="fill:rgb(108,99,255);fill-rule:nonzero;"/>
        </g>
        <g transform="matrix(1,0,0,1,279.758,271.385)">
            <path d="M626.275,223.79L568.89,230.168L570.143,249.722L626.238,243.593L626.275,223.79Z" style="fill:white;fill-opacity:0.3;fill-rule:nonzero;"/>
        </g>
        <g transform="matrix(1,0,0,1,162.001,237.462)">
            <path d="M538.774,410.164L544.618,425.884C544.618,425.884 553.303,433.329 562.808,429.606C572.313,425.883 580.601,424.035 584.732,420.412C588.863,416.789 594.658,398.587 594.658,398.587C594.658,398.587 600.452,378.735 606.234,373.772C612.016,368.809 627.327,300.431 606.234,307.118C585.141,313.805 569.011,375.844 569.011,375.844C569.011,375.844 565.289,380.385 559.916,380.807C554.543,381.229 543.786,379.976 541.716,384.529C539.646,389.082 532.57,401.07 538.774,410.164Z" style="fill:rgb(237,157,160);fill-rule:nonzero;"/>
        </g>
        <g transform="matrix(1,0,0,1,180.515,224.019)">
            <path d="M644.335,258.587C633.315,261.07 621.745,258.186 613.18,250.82L617.659,366.533C617.659,366.533 628.205,377.948 644.335,375.342L644.335,258.587Z" style="fill:rgb(108,99,255);fill-rule:nonzero;"/>
        </g>
        <g transform="matrix(1,0,0,1,180.515,224.019)">
            <path d="M644.335,258.587C633.315,261.07 621.745,258.186 613.18,250.82L617.659,366.533C617.659,366.533 628.205,377.948 644.335,375.342L644.335,258.587Z" style="fill-opacity:0.1;fill-rule:nonzero;"/>
        </g>
        <g transform="matrix(1,0,0,1,187.041,220.758)">
            <path d="M640.29,248.808C640.29,248.808 683.506,235.594 694.772,237.455" style="fill-opacity:0.1;fill-rule:nonzero;"/>
        </g>
        <g transform="matrix(1,0,0,1,168.177,220.398)">
            <path d="M610.816,243.4C610.816,243.4 568.928,233.474 561.93,236.29" style="fill-opacity:0.1;fill-rule:nonzero;"/>
        </g>
        <g transform="matrix(1,0,0,1,192.328,221.973)">
            <path d="M662.25,249.242C662.25,249.242 691.15,238.642 701.595,243.683" style="fill-opacity:0.1;fill-rule:nonzero;"/>
        </g>
        <g transform="matrix(1,0,0,1,189.505,270.675)">
            <path d="M650.52,466.348C654.998,462.985 659.765,460.024 664.764,457.501C672.208,453.915 685.857,444.61 685.857,444.61" style="fill-opacity:0.1;fill-rule:nonzero;"/>
        </g>
        <g transform="matrix(1,0,0,1,161.891,250.324)">
            <path d="M568.214,360.08C568.214,360.08 550.086,374.907 544.64,376.21C539.194,377.513 535.831,389.077 535.831,389.077" style="fill-opacity:0.1;fill-rule:nonzero;"/>
        </g>
        <g transform="matrix(1,0,0,1,189.93,237.041)">
            <path d="M730.5,408.377L724.718,424.135C724.718,424.135 716.033,431.58 706.518,427.857C697.003,424.134 688.738,422.286 684.594,418.663C680.45,415.04 674.668,396.838 674.668,396.838C674.668,396.838 668.886,376.986 663.092,372.023C657.298,367.06 641.999,298.682 663.092,305.369C684.185,312.056 700.315,374.095 700.315,374.095C700.315,374.095 704.037,378.636 709.41,379.058C714.783,379.48 725.54,378.227 727.61,382.78C729.68,387.333 736.7,399.32 730.5,408.377Z" style="fill:rgb(237,157,160);fill-rule:nonzero;"/>
        </g>
        <g transform="matrix(1,0,0,1,203.25,253.466)">
            <path d="M691.69,358.3C691.69,358.3 707.66,371.3 712.473,372.444C717.286,373.588 720.239,383.726 720.239,383.726" style="fill-opacity:0.1;fill-rule:nonzero;"/>
        </g>
    </g>
</svg>
